<svg width="216" height="81" viewBox="0 0 216 81" fill="none" xmlns="http://www.w3.org/2000/svg">
<g clip-path="url(#clip0_199_194)">
<path fill-rule="evenodd" clip-rule="evenodd" d="M7.41301 21.0752C-3.50685 26.2745 -1.33175 49.5582 7.41301 52.4969C72.7546 52.4969 138.141 52.4969 203.482 52.4969C207.921 31.2929 185.549 37.9389 182.53 20.9395H170.367L169.79 22.4315C169.346 23.5618 168.503 24.5112 167.216 24.5112C166.683 24.5112 166.195 24.3304 165.795 23.9687C165.396 23.5618 165.129 23.0645 165.129 22.4767C165.129 22.0246 165.307 21.4821 165.485 21.0752L165.573 20.9395C121.628 20.9395 7.41301 20.9848 7.41301 21.0752ZM20.4636 37.532H13.5388L12.2959 44.6302H8.61153L11.3637 28.8063H15.048L13.9827 34.8194H20.9075L21.9728 28.8063H25.6571L22.905 44.6302H19.2206L20.4636 37.532ZM31.2059 41.375L29.4303 44.6302H25.524L34.6239 28.8063H38.9296L42.392 44.6302H38.397L37.8199 41.375H31.2059ZM32.6707 38.6171L36.0887 32.3328L37.1985 38.6171H32.6707ZM51.048 28.8063L48.2959 44.6302H44.6115L47.3637 28.8063H51.048ZM52.1134 44.6302L54.8655 28.8063H63.8766C65.9185 28.8063 67.339 29.394 68.138 30.4791C68.6707 31.2929 68.8927 32.1971 68.7151 33.237C68.5375 34.1412 68.1824 34.9098 67.561 35.6332C66.9395 36.3113 66.1849 36.8087 65.2971 37.0347C66.0517 37.3512 66.5844 37.7129 66.7619 38.1198C67.0727 38.7075 67.0727 39.657 66.8507 41.0133C66.6732 42.0984 66.54 42.867 66.4956 43.2739C66.4512 43.6808 66.6732 43.9972 67.0727 44.1329L66.9839 44.585H62.9001C62.8557 44.1781 62.8113 43.726 62.8113 43.2739C62.8113 42.8217 62.9001 42.1888 63.0332 41.3298C63.2552 40.1543 63.2108 39.3857 62.9888 39.024C62.7225 38.5719 61.9235 38.3458 60.6362 38.3458H56.8187L55.7089 44.585H52.1134V44.6302ZM57.3513 35.7688L58.106 31.519H62.7225C63.6991 31.519 64.3649 31.745 64.72 32.2423C64.9864 32.604 65.0751 33.0561 64.9864 33.5987C64.8532 34.3673 64.5425 34.9098 64.0098 35.2715C63.4771 35.588 62.7225 35.7688 61.7459 35.7688H57.3513ZM78.0369 44.6302L80.7891 28.8063H88.646C91.3094 28.8063 93.1294 29.7105 94.0616 31.4285C94.7274 32.7397 94.905 34.3673 94.5499 36.3113C94.1947 38.4363 93.3513 40.2447 92.1084 41.7367C90.466 43.6808 88.3353 44.6302 85.7163 44.6302H78.0369ZM83.9851 31.519H87.5363C88.646 31.519 89.4894 31.7902 90.0221 32.2875C90.8211 33.1013 91.0875 34.5029 90.7324 36.5374C90.466 38.0746 89.9777 39.2953 89.2231 40.1995C88.3353 41.3298 87.1812 41.8723 85.8051 41.8723H82.2095L83.9851 31.519ZM112.483 28.8063L111.995 31.6094H102.584L102.007 34.955H110.663L110.175 37.7129H101.519L100.809 41.8271H110.663L110.175 44.6302H96.6806L99.4327 28.8063H112.483ZM113.904 39.7474H117.455C117.322 40.3803 117.455 40.9229 117.81 41.375C118.343 42.0079 119.319 42.3244 120.74 42.3244C121.805 42.3244 122.649 42.1888 123.314 41.9627C124.158 41.6463 124.69 41.0585 124.824 40.2899C124.912 39.7474 124.69 39.2953 124.158 38.9788C123.758 38.7527 123.048 38.5267 121.938 38.3006L120.074 37.8937C118.254 37.532 117.011 37.1251 116.434 36.673C115.369 35.9496 115.014 34.8194 115.28 33.237C115.502 32.0163 116.079 30.9764 117.1 30.1174C118.476 28.9419 120.429 28.3542 122.959 28.3542C125.356 28.3542 127.087 28.9871 128.108 30.2078C128.907 31.1573 129.174 32.2423 128.952 33.5082H125.401C125.445 32.8753 125.312 32.378 125.046 32.0615C124.557 31.4285 123.625 31.1121 122.205 31.1121C121.361 31.1121 120.651 31.2477 120.03 31.519C119.275 31.8806 118.875 32.378 118.742 33.0109C118.653 33.5535 118.787 33.9604 119.142 34.2316C119.364 34.4125 119.763 34.5481 120.296 34.6837L124.468 35.588C125.889 35.9044 126.91 36.3113 127.487 36.8539C128.286 37.5772 128.597 38.5719 128.375 39.883C128.108 41.4654 127.265 42.7313 125.933 43.5903C124.424 44.585 122.604 45.0823 120.429 45.0823C117.588 45.0823 115.635 44.4493 114.57 43.1834C113.904 42.234 113.637 41.1037 113.904 39.7474ZM137.341 28.8063L134.589 44.6302H130.905L133.657 28.8063H137.341ZM147.817 38.7527L148.306 36.0401H155.719L154.21 44.585H151.724L151.679 42.5957C150.836 43.3191 150.081 43.8616 149.504 44.1781C148.395 44.7658 147.107 45.0371 145.687 45.0371C143.423 45.0371 141.647 44.3589 140.404 42.9574C138.984 41.4202 138.54 39.3405 138.984 36.7182C139.383 34.3673 140.449 32.4232 142.091 30.886C144 29.168 146.353 28.309 149.149 28.309C151.635 28.309 153.499 28.9419 154.742 30.1626C155.808 31.2025 156.207 32.378 155.985 33.6439H152.256C152.345 33.1918 152.123 32.6944 151.591 32.1067C150.925 31.3833 150.037 31.0216 148.883 31.0216C147.418 31.0216 146.175 31.4737 145.11 32.3328C143.867 33.3726 143.112 34.8194 142.801 36.7182C142.446 38.7075 142.757 40.1543 143.645 41.0585C144.355 41.8271 145.465 42.1888 146.974 42.1888C148.084 42.1888 149.06 41.8723 149.948 41.2394C150.836 40.6064 151.457 39.7474 151.901 38.6623H147.817V38.7527ZM172.054 28.8063H175.517L172.764 44.6302H169.036L163.798 33.3274L161.756 44.6302H158.293L161.046 28.8063H164.952L170.057 39.8378L172.054 28.8063Z" fill="white"/>
<path fill-rule="evenodd" clip-rule="evenodd" d="M205.702 52.3161C205.702 52.3161 210.052 43.4547 205.524 36.8991C200.996 30.3435 192.917 30.6599 188.257 23.7878C183.596 16.8705 186.481 8.05436 186.481 8.05436C186.481 8.05436 180.71 19.7188 187.724 26.9978C196.069 35.7236 208.853 32.8753 205.702 52.3161Z" fill="white"/>
<path fill-rule="evenodd" clip-rule="evenodd" d="M209.918 48.9253C209.918 48.9253 214.269 40.0639 209.741 33.5082C205.213 26.9526 197.134 27.2691 192.473 20.397C187.812 13.4797 190.698 4.66353 190.698 4.66353C190.698 4.66353 184.927 16.328 191.941 23.607C200.286 32.378 213.07 29.4845 209.918 48.9253Z" fill="white"/>
<path fill-rule="evenodd" clip-rule="evenodd" d="M214.091 44.8562C214.091 44.8562 218.441 35.9949 213.913 29.4392C209.386 22.8836 201.307 23.2001 196.646 16.328C191.985 9.4107 194.87 0.594521 194.87 0.594521C194.87 0.594521 189.1 12.259 196.113 19.538C204.503 28.2638 217.243 25.3702 214.091 44.8562Z" fill="white"/>
<path fill-rule="evenodd" clip-rule="evenodd" d="M164.686 7.69267C165.707 7.69267 166.55 8.00915 167.171 8.68731C167.837 9.36548 168.148 10.1793 168.148 11.1739C168.148 11.9425 167.97 12.7111 167.615 13.4345C167.26 14.2031 166.816 14.7908 166.284 15.2429C165.929 15.5142 165.529 15.7403 165.174 15.8307C164.774 15.9211 164.242 16.0115 163.531 16.0115C162.377 16.0115 161.623 15.8759 161.223 15.6046C160.291 14.9265 159.803 13.977 159.803 12.7111C159.803 11.3548 160.291 10.1793 161.223 9.18464C162.244 8.18999 163.398 7.69267 164.686 7.69267ZM164.419 9.99844C163.887 9.99844 163.443 10.2697 162.999 10.767C162.555 11.3096 162.377 11.8521 162.377 12.485C162.377 13.2989 162.821 13.7058 163.753 13.7058C164.286 13.7058 164.686 13.5249 164.996 13.2084C165.485 12.6659 165.707 12.0329 165.707 11.3096C165.707 10.9027 165.573 10.5862 165.351 10.3149C165.129 10.1341 164.819 9.99844 164.419 9.99844ZM174.54 7.8283L175.517 5.34169C175.739 4.75394 176.049 4.34704 176.36 4.12099C176.715 3.89493 177.159 3.7593 177.736 3.7593H178.047C178.624 3.7593 179.023 3.62366 179.334 3.39761C179.645 3.17155 179.822 2.80986 179.822 2.35775C179.822 1.7248 179.379 1.40832 178.491 1.40832H177.292C176.227 1.40832 175.384 1.63437 174.762 2.1317C174.141 2.58381 173.608 3.39761 173.164 4.48268L171.832 7.8283H170.634C170.057 7.8283 169.613 7.96393 169.302 8.18999C168.991 8.41605 168.814 8.77774 168.814 9.22985C168.814 9.8628 169.258 10.1793 170.146 10.1793H170.856L166.328 21.4821C166.15 21.9342 166.062 22.2959 166.062 22.4767C166.062 22.748 166.15 23.0192 166.372 23.2001C166.594 23.3809 166.861 23.4714 167.171 23.4714C167.882 23.4714 168.414 22.974 168.814 21.9794L173.564 10.0889H175.517C176.094 10.0889 176.493 9.95323 176.848 9.72717C177.159 9.50111 177.337 9.13942 177.337 8.73252C177.337 8.09957 176.893 7.78309 176.005 7.78309H174.54V7.8283Z" fill="white"/>
<path fill-rule="evenodd" clip-rule="evenodd" d="M51.2699 78.3577H65.7853C65.9628 79.2167 66.3179 79.9853 66.895 80.6635H51.2255C50.604 80.6635 50.1157 80.1662 50.1157 79.5332C50.1157 78.8551 50.6484 78.3577 51.2699 78.3577ZM77.5485 78.3577H84.7396C84.8728 79.2167 85.2723 79.9853 85.805 80.6635H74.9739C75.5066 80.0758 75.9949 79.3524 76.35 78.5838C76.7939 78.5386 77.149 78.4934 77.5485 78.3577ZM96.7248 78.3577H117.588C117.544 78.5838 117.544 78.7646 117.544 78.9907C117.544 79.5784 117.721 80.1662 117.987 80.6635H94.0615C94.4166 80.2566 94.7717 79.7593 95.038 79.2167C95.1268 79.0359 95.2156 78.855 95.3044 78.6742C95.8371 78.629 96.2809 78.5386 96.7248 78.3577ZM124.735 78.3577H158.515C159.137 78.3577 159.625 78.855 159.625 79.488C159.625 80.121 159.137 80.6183 158.515 80.6183H123.669C123.891 80.3018 124.113 79.9401 124.246 79.5332L124.735 78.3577Z" fill="white"/>
<path fill-rule="evenodd" clip-rule="evenodd" d="M47.5856 65.1108H46.7866H46.6091C46.032 65.1108 45.7213 64.8396 45.7213 64.3423C45.7213 64.0258 45.8544 63.7545 46.0764 63.5285C46.2983 63.3024 46.6091 63.212 46.9642 63.212H47.1861H49.4944C51.048 63.212 52.2022 63.5737 53.0456 64.3423C53.889 65.1108 54.2885 66.1507 54.2885 67.5523C54.2885 69.6772 53.5782 71.6665 52.2022 73.4297C51.4031 74.4243 50.5154 75.1477 49.4944 75.645C48.4734 76.0972 47.2749 76.3232 45.8988 76.3232H45.3662L45.2774 76.5493C44.9223 77.4083 44.6115 77.996 44.434 78.3125C44.212 78.629 43.9457 78.9907 43.635 79.3072C42.7472 80.121 41.7706 80.5279 40.6165 80.5279C39.6843 80.5279 38.9297 80.2566 38.3082 79.6688C37.7311 79.0811 37.4204 78.4029 37.4204 77.4987C37.4204 76.9562 37.5536 76.4588 37.8199 76.0067C38.0863 75.5546 38.4414 75.1477 38.8853 74.9217C39.4623 74.6052 40.217 74.4243 41.1935 74.4243H43.9901L47.5856 65.1108ZM46.1208 74.4243H46.4315C48.0739 74.4243 49.4056 73.701 50.5154 72.209C51.048 71.4856 51.4475 70.717 51.7583 69.9032C52.069 69.0894 52.2022 68.3208 52.2022 67.5975C52.2022 66.8289 51.9802 66.1959 51.5363 65.7438C51.0924 65.2917 50.5154 65.0656 49.7607 65.0656L46.1208 74.4243ZM43.1467 76.3232H41.0604C40.0394 76.3232 39.5067 76.6849 39.5067 77.4535C39.5067 77.77 39.6399 77.996 39.8618 78.2221C40.0838 78.4481 40.3501 78.5386 40.7052 78.5386C41.1935 78.5386 41.6374 78.3577 42.0813 77.9508C42.4808 77.5891 42.8359 77.0466 43.1467 76.3232ZM56.3304 71.8021C56.3304 72.209 56.6411 72.3898 57.2182 72.3898H59.5708C60.2367 72.3898 60.5474 72.6159 60.5474 73.1132C60.5474 73.4297 60.4142 73.701 60.1923 73.8818C59.9704 74.0627 59.6152 74.1531 59.2157 74.1531H56.9962C56.1528 74.1531 55.5314 73.927 55.0875 73.5201C54.6436 73.1132 54.4216 72.4803 54.4216 71.7117C54.4216 70.6718 54.7768 69.8128 55.4426 69.0442C56.1084 68.2756 56.9518 67.9139 57.884 67.9139C58.5499 67.9139 59.1269 68.0948 59.5265 68.4565C59.926 68.8182 60.1479 69.3155 60.1479 69.9032C60.1479 70.6266 59.8816 71.1691 59.3045 71.4856C58.9938 71.6665 58.5055 71.8021 57.884 71.8021H56.3304ZM56.6855 70.3553H57.5289C58.106 70.3553 58.3723 70.2197 58.3279 69.9937C58.3279 69.7224 58.1504 69.5868 57.7953 69.5868C57.3514 69.5415 56.9519 69.8128 56.6855 70.3553ZM63.4327 70.2197L63.2996 70.5814C63.0776 71.1239 62.7225 71.3952 62.323 71.3952C62.101 71.3952 61.9235 71.3048 61.7459 71.1691C61.5684 71.0335 61.4796 70.8527 61.4796 70.6266C61.4796 70.4458 61.5684 70.1745 61.7015 69.858L62.7669 67.6879C63.0332 67.1453 63.344 66.9193 63.7435 66.9193C63.9654 66.9193 64.143 67.0097 64.2761 67.1453C64.4093 67.281 64.4981 67.4618 64.4981 67.6427C64.4981 67.6879 64.4981 67.7783 64.4537 67.9591C64.4537 68.0948 64.4093 68.1852 64.4093 68.2756C64.4093 68.5921 64.5425 68.9538 64.7644 69.3155L65.2083 69.9484C65.6522 70.5814 65.9186 71.2144 65.9186 71.8473C65.9186 72.5255 65.6522 73.068 65.1639 73.5201C64.6757 73.9722 64.0542 74.1983 63.2996 74.1983H61.6572C60.9913 74.1983 60.6806 73.9722 60.6806 73.4749C60.6806 73.1584 60.8138 72.8872 61.0357 72.7063C61.2576 72.5255 61.6128 72.4351 62.0123 72.4351H62.9445C63.6991 72.4351 64.0542 72.1638 64.0542 71.6213C64.0542 71.4404 63.9654 71.1691 63.8322 70.9431L63.4327 70.2197ZM68.6263 72.4351H69.5141C70.18 72.4351 70.4907 72.6611 70.4907 73.1584C70.4907 73.4749 70.3575 73.7462 70.1356 73.927C69.9136 74.1079 69.5585 74.1983 69.159 74.1983H67.9161C67.4722 74.1983 67.0727 74.1079 66.8064 73.927C66.54 73.7462 66.4068 73.4749 66.4068 73.1584C66.4068 72.9776 66.4512 72.7515 66.5844 72.4803L67.8717 69.2251L67.9605 68.999C68.1824 68.4113 68.5819 68.0948 69.1146 68.0948C69.3366 68.0948 69.5141 68.1852 69.6917 68.3208C69.8692 68.4565 69.9136 68.6373 69.9136 68.8634C69.9136 69.0442 69.8248 69.3155 69.6917 69.632L68.6263 72.4351ZM69.6917 65.4725C70.0024 65.4725 70.2687 65.563 70.4463 65.789C70.6683 66.0151 70.757 66.2863 70.757 66.5576C70.757 66.8741 70.6683 67.1454 70.4463 67.3262C70.2244 67.5523 69.958 67.6427 69.6917 67.6427C69.381 67.6427 69.1146 67.5523 68.9371 67.3262C68.7151 67.1001 68.6263 66.8289 68.6263 66.5576C68.6263 66.2411 68.7151 65.9699 68.9371 65.789C69.1146 65.563 69.381 65.4725 69.6917 65.4725ZM75.4623 74.3791L77.4599 69.4059C77.593 69.0442 77.6818 68.8182 77.6818 68.6373C77.6818 68.4113 77.593 68.2304 77.4599 68.0948C77.3267 67.9592 77.1047 67.8687 76.8828 67.8687C76.4389 67.8687 76.0838 68.0948 75.8175 68.5017C75.5067 68.0948 75.0184 67.8687 74.3526 67.8687C73.4648 67.8687 72.6658 68.2756 71.9556 69.0894C71.2453 69.9032 70.8902 70.8527 70.8902 71.8473C70.8902 72.4803 71.0678 72.9776 71.4229 73.3845C71.778 73.7914 72.2219 73.9722 72.799 73.9722C73.1097 73.9722 73.4204 73.8818 73.7311 73.6558L73.5092 74.2887H71.8224C70.8902 74.2887 70.1356 74.4696 69.5585 74.7408C69.1146 75.0121 68.7595 75.3286 68.4932 75.7807C68.2268 76.2328 68.0937 76.6849 68.0937 77.1822C68.0937 77.9508 68.36 78.5838 68.8927 79.0811C69.4253 79.5784 70.0912 79.8497 70.9346 79.8497C72.4882 79.8497 73.6424 78.855 74.4414 76.8205L74.7521 76.0067H76.0394C76.4389 76.0067 76.794 75.9163 77.016 75.7355C77.2379 75.5546 77.3711 75.2834 77.3711 74.9669C77.3711 74.5148 77.016 74.2435 76.3945 74.2435H75.4623V74.3791ZM74.4414 71.9829C74.3082 72.2542 74.0419 72.3898 73.598 72.3898C73.0653 72.3898 72.8433 72.1186 72.8433 71.5308C72.8433 71.0335 73.0209 70.5814 73.376 70.1293C73.7311 69.6772 74.0863 69.4511 74.4414 69.4511C74.6633 69.4511 74.8409 69.4963 74.974 69.632C75.1072 69.7224 75.196 69.858 75.196 70.0389C75.196 70.1293 75.1516 70.2197 75.1072 70.3553L74.4414 71.9829ZM72.799 76.1424C72.4438 76.911 72.1331 77.4535 71.8668 77.77C71.6004 78.0864 71.2453 78.2221 70.8902 78.2221C70.6239 78.2221 70.4019 78.1317 70.2244 77.9508C70.0468 77.77 69.958 77.5439 69.958 77.3179C69.958 76.9562 70.0912 76.6397 70.3575 76.4588C70.6239 76.2328 70.979 76.1424 71.4673 76.1424H72.799ZM83.6744 72.4351H84.6066C85.2724 72.4351 85.5832 72.6611 85.5832 73.1584C85.5832 73.4749 85.45 73.7462 85.2281 73.927C85.0061 74.1079 84.651 74.1983 84.2515 74.1983H82.6091C82.2983 74.1983 82.032 74.1079 81.8101 73.8818C81.5881 73.701 81.4993 73.4297 81.4993 73.1132C81.4993 72.9324 81.5881 72.6611 81.7213 72.2994L82.4315 70.5362C82.5203 70.3553 82.5647 70.2197 82.5647 70.0841C82.5647 69.9484 82.5203 69.858 82.4315 69.7676C82.3427 69.6772 82.1652 69.632 82.032 69.632C81.4993 69.632 81.0554 70.0389 80.7003 70.8527L79.7681 73.2036C79.5018 73.927 79.0579 74.2435 78.5252 74.2435C78.3033 74.2435 78.1257 74.1531 77.9482 74.0174C77.7706 73.8818 77.7262 73.701 77.7262 73.5201C77.7262 73.3845 77.7706 73.2036 77.8594 72.9776L77.9482 72.7515L79.5462 68.773C79.7681 68.2756 80.0789 68.0044 80.6115 68.0044C81.011 68.0044 81.3218 68.1852 81.4993 68.5469C82.0764 68.0948 82.6091 67.9139 83.0974 67.9139C83.5856 67.9139 83.9851 68.0496 84.3403 68.366C84.651 68.6373 84.8286 69.0442 84.8286 69.4511C84.8286 69.6772 84.7842 69.9484 84.651 70.2649L83.6744 72.4351ZM94.4611 74.4696H95.3933C96.0591 74.4696 96.3699 74.6956 96.3699 75.1929C96.3699 75.5094 96.2367 75.7807 96.0147 75.9615C95.7928 76.1424 95.4377 76.2328 95.0382 76.2328H93.7509C93.6177 76.6849 93.307 77.3179 92.9075 78.0864C92.1972 79.4428 91.2207 80.0757 89.889 80.0757C89.09 80.0757 88.4241 79.8045 87.847 79.3072C87.3144 78.8098 87.048 78.1769 87.048 77.4083C87.048 76.8657 87.1812 76.3684 87.4919 75.9163C87.8027 75.4642 88.1578 75.1025 88.6461 74.8765C89.2231 74.6052 90.0221 74.4696 91.0875 74.4696H92.3748L92.5967 73.8818C92.1972 74.0627 91.8421 74.1531 91.5314 74.1531C90.9543 74.1531 90.5104 74.0174 90.1553 73.701C89.8002 73.4297 89.6226 73.0228 89.6226 72.5707C89.6226 72.2994 89.7558 71.8473 89.9777 71.3048L90.8212 69.1346L90.9099 68.9086C91.1763 68.3208 91.5314 68.0044 92.0641 68.0044C92.286 68.0044 92.508 68.0948 92.6411 68.2304C92.7743 68.3661 92.8631 68.5921 92.8631 68.8182C92.8631 68.9538 92.7743 69.2251 92.6411 69.5868L91.8865 71.4856C91.7533 71.8021 91.7089 71.9829 91.7089 72.0734C91.7089 72.3446 91.8421 72.4803 92.1972 72.4803C92.4192 72.4803 92.6855 72.3898 92.9519 72.2542C93.2182 72.1186 93.3514 71.9377 93.4401 71.7569L94.5055 69.1346L94.5943 68.9086C94.8606 68.3208 95.2157 68.0044 95.7484 68.0044C95.9703 68.0044 96.1923 68.0948 96.3255 68.2304C96.4586 68.3661 96.5474 68.5921 96.5474 68.773C96.5474 68.9086 96.503 69.0894 96.4142 69.3155L96.3255 69.5415L94.4611 74.4696ZM91.8865 76.2328H90.7768C89.5782 76.2328 88.9568 76.6397 88.9568 77.4083C88.9568 77.6795 89.0456 77.9056 89.2231 78.0864C89.4007 78.2673 89.6226 78.3577 89.889 78.3577C90.2885 78.3577 90.5992 78.2221 90.9099 77.9056C91.1763 77.5439 91.5314 77.0014 91.8865 76.2328ZM100.498 67.9139C101.253 67.9139 101.874 68.14 102.362 68.6373C102.851 69.1346 103.117 69.7676 103.117 70.491C103.117 71.0787 102.984 71.6213 102.718 72.209C102.451 72.7515 102.141 73.2036 101.697 73.5653C101.43 73.7914 101.12 73.927 100.853 74.0174C100.542 74.1079 100.143 74.1531 99.6103 74.1531C98.7669 74.1531 98.1898 74.0627 97.8791 73.8366C97.1689 73.3393 96.8138 72.6159 96.8138 71.6665C96.8138 70.6718 97.1689 69.7676 97.8791 69.0442C98.6781 68.2756 99.5215 67.9139 100.498 67.9139ZM100.321 69.632C99.921 69.632 99.5659 69.8128 99.2552 70.2197C98.9445 70.6266 98.7669 71.0335 98.7669 71.5308C98.7669 72.1638 99.122 72.4803 99.7879 72.4803C100.187 72.4803 100.498 72.3446 100.72 72.1186C101.075 71.7117 101.253 71.2596 101.253 70.717C101.253 70.4006 101.164 70.1745 100.986 69.9937C100.809 69.7224 100.587 69.632 100.321 69.632ZM109.065 72.4351H109.997C110.353 72.4351 110.619 72.4803 110.752 72.6159C110.885 72.7063 110.974 72.8872 110.974 73.1584C110.974 73.4749 110.841 73.7462 110.619 73.927C110.397 74.1079 110.042 74.1983 109.642 74.1983H108.222C107.778 74.1983 107.467 74.0174 107.334 73.6558C107.068 74.0174 106.668 74.1983 106.269 74.1983H105.115C104.671 74.1983 104.271 74.0627 103.96 73.7462C103.65 73.4749 103.517 73.068 103.517 72.6159C103.517 72.3446 103.605 72.0734 103.739 71.7117L104.804 69.0442C105.115 68.3208 105.514 67.9139 106.047 67.9139C106.269 67.9139 106.446 68.0044 106.624 68.14C106.801 68.2756 106.846 68.4565 106.846 68.6825C106.846 68.8634 106.801 69.0442 106.713 69.2251L106.624 69.4511L105.825 71.5308L105.736 71.7569C105.692 71.8925 105.647 71.9829 105.647 72.0734C105.647 72.2994 105.78 72.4351 106.091 72.4351C106.757 72.4351 107.157 72.1638 107.378 71.6213L108.355 69.1346C108.666 68.3661 109.065 68.0044 109.598 68.0044C109.82 68.0044 109.997 68.0948 110.175 68.2304C110.353 68.3661 110.397 68.5469 110.397 68.773C110.397 68.9538 110.308 69.1799 110.175 69.5415L109.065 72.4351ZM113.238 69.7676L112.972 70.4458C112.75 71.0335 112.395 71.35 112.039 71.35C111.817 71.35 111.596 71.2596 111.462 71.1239C111.285 70.9883 111.24 70.8075 111.24 70.5814C111.24 70.4458 111.285 70.2649 111.418 69.9484L112.306 67.6879C112.528 67.1453 112.838 66.8741 113.238 66.8741C113.637 66.8741 113.859 67.0549 113.948 67.4166L113.993 67.6879C114.037 67.8235 114.081 67.9139 114.126 67.9139C114.17 67.9591 114.348 67.9591 114.57 67.9591H116.434C117.1 67.9591 117.455 68.1852 117.455 68.6825C117.455 69.3607 117.011 69.7224 116.168 69.7224L116.079 69.8128C115.235 70.6266 114.836 71.2596 114.836 71.7117C114.836 72.1638 115.058 72.3898 115.546 72.3898H116.523C117.189 72.3898 117.544 72.6159 117.544 73.1132C117.544 73.4297 117.411 73.701 117.189 73.8818C116.967 74.0627 116.612 74.1531 116.212 74.1531H114.658C114.126 74.1531 113.726 73.9722 113.371 73.6105C113.06 73.2489 112.883 72.7515 112.883 72.1638C112.883 71.8021 112.972 71.4404 113.149 71.0787C113.327 70.717 113.637 70.3101 114.081 69.7676H113.238ZM126.244 68.0044H127.309C127.975 68.0044 128.33 68.2304 128.33 68.7277C128.33 69.0442 128.197 69.3155 127.975 69.4963C127.753 69.6772 127.398 69.7676 126.999 69.7676H125.534L121.983 78.629C121.672 79.3524 121.272 79.7141 120.74 79.7141C120.518 79.7141 120.296 79.6236 120.163 79.488C119.985 79.3524 119.941 79.1715 119.941 78.9455C119.941 78.8098 120.03 78.5386 120.163 78.1769L123.536 69.7224H123.004C122.338 69.7224 121.983 69.4963 121.983 69.0442C121.983 68.7277 122.116 68.4565 122.338 68.2756C122.56 68.0948 122.915 68.0044 123.314 68.0044H124.202L125.223 65.4725C125.578 64.6587 125.978 64.0258 126.422 63.7093C126.91 63.3476 127.531 63.1668 128.286 63.1668H129.174C129.84 63.1668 130.195 63.3928 130.195 63.8901C130.195 64.2066 130.062 64.4779 129.84 64.6587C129.618 64.8396 129.263 64.93 128.863 64.93H128.641C128.197 64.93 127.842 65.0204 127.62 65.2013C127.354 65.3821 127.132 65.6986 126.999 66.1055L126.244 68.0044ZM132.858 72.4351L134.012 69.5868C134.145 69.2251 134.234 68.999 134.234 68.8182C134.234 68.5921 134.145 68.4113 134.012 68.2756C133.835 68.14 133.657 68.0496 133.435 68.0496C132.903 68.0496 132.503 68.4113 132.192 69.1798L131.216 71.6665C130.994 72.209 130.55 72.4803 129.928 72.4803C129.618 72.4803 129.44 72.3446 129.485 72.1186C129.485 72.0282 129.529 71.9377 129.573 71.8021L129.662 71.576L130.461 69.4963L130.55 69.2703C130.639 69.0442 130.683 68.8634 130.683 68.7277C130.683 68.5017 130.594 68.3208 130.461 68.1852C130.284 68.0496 130.106 67.9591 129.884 67.9591C129.351 67.9591 128.952 68.3208 128.641 69.0894L127.576 71.7569C127.443 72.1186 127.354 72.3898 127.354 72.6611C127.354 73.1132 127.487 73.4749 127.798 73.7914C128.108 74.0627 128.464 74.2435 128.952 74.2435H130.106C130.55 74.2435 130.905 74.0627 131.171 73.701C131.305 74.0627 131.615 74.2435 132.059 74.2435H133.48C133.879 74.2435 134.234 74.1531 134.456 73.9722C134.678 73.7914 134.811 73.5201 134.811 73.2036C134.811 72.9324 134.723 72.7515 134.589 72.6611C134.456 72.5707 134.19 72.4803 133.835 72.4803H132.858V72.4351ZM138.984 68.0044H139.25C139.916 68.0044 140.227 68.2304 140.227 68.7277C140.227 69.0442 140.094 69.3155 139.872 69.4963C139.65 69.6772 139.295 69.7676 138.895 69.7676H138.318L137.253 72.3898H138.141C138.806 72.3898 139.117 72.6159 139.117 73.1132C139.117 73.4297 138.984 73.701 138.762 73.8818C138.54 74.0627 138.185 74.1531 137.785 74.1531H136.365C135.965 74.1531 135.655 74.0627 135.433 73.8818C135.211 73.701 135.078 73.4297 135.078 73.1132C135.078 72.9324 135.122 72.7063 135.211 72.4351L135.344 72.0734L136.276 69.7224H136.143C135.566 69.7224 135.255 69.4963 135.255 69.0442C135.255 68.7277 135.388 68.4565 135.61 68.2756C135.832 68.0948 136.187 68.0044 136.587 68.0044H136.942L137.341 66.9645L137.43 66.7384C137.697 66.1507 138.052 65.8342 138.584 65.8342C138.806 65.8342 138.984 65.9246 139.117 66.0603C139.295 66.1959 139.339 66.3768 139.339 66.6028C139.339 66.7837 139.25 67.0549 139.117 67.3714L138.984 68.0044ZM145.465 72.4351L146.619 69.5868C146.752 69.2251 146.841 68.999 146.841 68.8182C146.841 68.5921 146.752 68.4113 146.619 68.2756C146.441 68.14 146.264 68.0496 146.042 68.0496C145.509 68.0496 145.11 68.4113 144.799 69.1798L143.822 71.6665C143.6 72.209 143.157 72.4803 142.535 72.4803C142.224 72.4803 142.047 72.3446 142.091 72.1186C142.091 72.0282 142.136 71.9377 142.18 71.8021L142.269 71.576L143.068 69.4963L143.157 69.2703C143.245 69.0442 143.29 68.8634 143.29 68.7277C143.29 68.5017 143.201 68.3208 143.068 68.1852C142.89 68.0496 142.713 67.9591 142.491 67.9591C141.958 67.9591 141.559 68.3208 141.248 69.0894L140.182 71.7569C140.049 72.1186 139.96 72.3898 139.96 72.6611C139.96 73.1132 140.094 73.4749 140.404 73.7914C140.715 74.0627 141.07 74.2435 141.559 74.2435H142.713C143.157 74.2435 143.512 74.0627 143.778 73.701C143.911 74.0627 144.222 74.2435 144.666 74.2435H146.086C146.486 74.2435 146.841 74.1531 147.063 73.9722C147.285 73.7914 147.418 73.5201 147.418 73.2036C147.418 72.9324 147.329 72.7515 147.196 72.6611C147.063 72.5707 146.796 72.4803 146.441 72.4803H145.465V72.4351ZM149.637 69.7676L149.371 70.4458C149.149 71.0335 148.794 71.35 148.439 71.35C148.217 71.35 147.995 71.2596 147.862 71.1239C147.684 70.9883 147.64 70.8075 147.64 70.5814C147.64 70.4458 147.684 70.2649 147.817 69.9484L148.705 67.6879C148.927 67.1453 149.238 66.8741 149.637 66.8741C150.037 66.8741 150.259 67.0549 150.348 67.4166L150.392 67.6879C150.436 67.8235 150.481 67.9139 150.525 67.9139C150.57 67.9591 150.747 67.9591 150.969 67.9591H152.833C153.499 67.9591 153.854 68.1852 153.854 68.6825C153.854 69.3607 153.411 69.7224 152.567 69.7224L152.478 69.8128C151.635 70.6266 151.235 71.2596 151.235 71.7117C151.235 72.1638 151.457 72.3898 151.946 72.3898H152.922C153.588 72.3898 153.943 72.6159 153.943 73.1132C153.943 73.4297 153.81 73.701 153.588 73.8818C153.366 74.0627 153.011 74.1531 152.612 74.1531H151.058C150.525 74.1531 150.126 73.9722 149.771 73.6105C149.46 73.2489 149.282 72.7515 149.282 72.1638C149.282 71.8021 149.371 71.4404 149.549 71.0787C149.726 70.717 150.037 70.3101 150.481 69.7676H149.637ZM156.118 71.8021C156.118 72.209 156.429 72.3898 157.006 72.3898H159.359C160.025 72.3898 160.335 72.6159 160.335 73.1132C160.335 73.4297 160.202 73.701 159.98 73.8818C159.758 74.0627 159.403 74.1531 159.004 74.1531H156.784C155.941 74.1531 155.319 73.927 154.875 73.5201C154.432 73.1132 154.21 72.4803 154.21 71.7117C154.21 70.6718 154.565 69.8128 155.231 69.0442C155.896 68.2756 156.74 67.9139 157.672 67.9139C158.338 67.9139 158.915 68.0948 159.314 68.4565C159.714 68.8182 159.936 69.3155 159.936 69.9032C159.936 70.6266 159.669 71.1691 159.092 71.4856C158.782 71.6665 158.293 71.8021 157.672 71.8021H156.118ZM156.518 70.3553H157.361C157.938 70.3553 158.205 70.2197 158.16 69.9937C158.16 69.7224 157.983 69.5868 157.628 69.5868C157.184 69.5415 156.784 69.8128 156.518 70.3553Z" fill="white"/>
<path fill-rule="evenodd" clip-rule="evenodd" d="M17.9333 16.8253C17.223 17.0514 16.5128 17.2322 15.847 17.3226C15.1811 17.4131 14.5597 17.5035 13.9382 17.5035C12.3402 17.5035 11.1417 17.0062 10.387 16.1019C9.63242 15.1525 9.23291 13.7058 9.23291 11.7165C9.23291 9.81759 9.63242 8.46126 10.387 7.60225C11.1417 6.74323 12.3846 6.33633 14.1158 6.33633C14.7372 6.33633 15.3587 6.38155 16.0245 6.47197C16.646 6.56239 17.3118 6.69802 17.9333 6.92408V10.541C17.3562 10.4505 16.8679 10.4053 16.4684 10.3601C16.0245 10.3149 15.6694 10.3149 15.3587 10.3149C14.6041 10.3149 14.1158 10.4505 13.805 10.7218C13.4943 10.9931 13.3611 11.4452 13.3611 12.0782C13.3611 12.7563 13.5387 13.2084 13.8494 13.5249C14.1602 13.8414 14.6928 13.977 15.3587 13.977C15.7582 13.977 16.1577 13.9318 16.6016 13.8866C17.0455 13.8414 17.4894 13.7058 18.0221 13.6153V16.8253H17.9333ZM18.4216 17.187L21.2181 6.6076H26.9L29.7409 17.187H25.7459L25.4795 15.5142H22.6386L22.2835 17.187H18.4216ZM25.0356 12.9372L24.4586 10.4958C24.3698 10.0889 24.281 9.72717 24.2366 9.32027C24.1922 8.95858 24.1478 8.59689 24.1034 8.2352H24.0147C23.9703 8.6421 23.9259 9.00379 23.8371 9.36548C23.7927 9.72717 23.7039 10.1341 23.6152 10.4958L23.0825 12.9372H25.0356ZM34.4462 11.5808H35.2452C35.8667 11.5808 36.2662 11.4904 36.5325 11.3096C36.7545 11.1287 36.8877 10.8122 36.8877 10.4053C36.8877 10.0436 36.7989 9.77238 36.5769 9.63675C36.355 9.50112 35.9555 9.41069 35.334 9.41069H34.4462V11.5808ZM30.6287 17.187V6.6076H37.3759C38.5301 6.6076 39.3735 6.83366 39.9062 7.33098C40.4388 7.8283 40.7052 8.55168 40.7052 9.59154C40.7052 10.5862 40.4832 11.3548 39.9949 11.8973C39.551 12.4398 38.8408 12.7111 37.953 12.7563L41.1491 17.187H36.7101L35.2009 14.7456C35.0677 14.5196 34.9345 14.2483 34.8013 13.977C34.6682 13.7058 34.5794 13.4345 34.4462 13.1632H34.3575C34.4018 13.3893 34.4018 13.6605 34.4018 13.9318C34.4018 14.2031 34.4018 14.61 34.4018 15.1525V17.1418H30.6287V17.187ZM42.17 17.187V6.6076H50.4709V9.68196H45.8988V10.9027H50.4709V13.2536H45.8988V14.5648H50.4709V17.2322H42.17V17.187ZM52.1577 17.187V6.6076H60.4586V9.68196H55.9308V10.9027H60.5029V13.2536H55.9308V14.5648H60.5029V17.2322H52.1577V17.187ZM66.0073 11.5808H66.8063C67.4277 11.5808 67.8272 11.4904 68.0936 11.3096C68.3155 11.1287 68.4487 10.8122 68.4487 10.4053C68.4487 10.0436 68.3599 9.77238 68.138 9.63675C67.916 9.50112 67.5165 9.41069 66.8951 9.41069H66.0073V11.5808ZM62.1898 17.187V6.6076H68.937C70.0911 6.6076 70.9345 6.83366 71.4672 7.33098C71.9999 7.8283 72.2662 8.55168 72.2662 9.59154C72.2662 10.5862 72.0443 11.3548 71.556 11.8973C71.1121 12.4398 70.4018 12.7111 69.514 12.7563L72.7101 17.187H68.2267L66.7175 14.7456C66.5843 14.5196 66.4512 14.2483 66.318 13.977C66.1848 13.7058 66.096 13.4345 65.9629 13.1632H65.8741C65.9185 13.3893 65.9185 13.6605 65.9185 13.9318C65.9185 14.2031 65.9185 14.61 65.9185 15.1525V17.1418H62.1898V17.187ZM77.7705 17.187L80.5671 6.6076H86.2489L89.0455 17.187H85.0504L84.7841 15.5142H81.9875L81.6324 17.187H77.7705ZM84.3846 12.9372L83.8075 10.4958C83.7187 10.0889 83.63 9.72717 83.5856 9.32027C83.5412 8.95858 83.4968 8.59689 83.4524 8.2352H83.3636C83.3192 8.6421 83.2748 9.00379 83.1861 9.36548C83.1417 9.72717 83.0529 10.1341 82.9641 10.4958L82.387 12.892H84.3846V12.9372ZM98.0122 16.8253C97.302 17.0514 96.5917 17.2322 95.9259 17.3226C95.26 17.4131 94.6386 17.5035 94.0171 17.5035C92.4191 17.5035 91.2206 17.0062 90.466 16.1019C89.7113 15.1525 89.3118 13.7058 89.3118 11.7165C89.3118 9.81759 89.7113 8.46126 90.466 7.60225C91.2206 6.74323 92.4635 6.33633 94.1947 6.33633C94.8161 6.33633 95.4376 6.38155 96.1034 6.47197C96.7249 6.56239 97.3907 6.69802 98.0122 6.92408V10.541C97.4351 10.4505 96.9468 10.4053 96.5473 10.3601C96.1034 10.3149 95.7483 10.3149 95.4376 10.3149C94.683 10.3149 94.1947 10.4505 93.884 10.7218C93.5732 10.9931 93.4401 11.4452 93.4401 12.0782C93.4401 12.7563 93.6176 13.2084 93.9284 13.5249C94.2391 13.8414 94.7718 13.977 95.4376 13.977C95.8371 13.977 96.2366 13.9318 96.6805 13.8866C97.1244 13.8414 97.5683 13.7058 98.101 13.6153V16.8253H98.0122ZM98.5005 17.187L101.297 6.6076H106.979L109.775 17.187H105.78L105.47 15.5142H102.673L102.318 17.187H98.5005ZM105.115 12.9372L104.537 10.4958C104.449 10.0889 104.36 9.72717 104.316 9.32027C104.271 8.95858 104.227 8.59689 104.182 8.2352H104.094C104.049 8.6421 104.005 9.00379 103.916 9.36548C103.872 9.72717 103.783 10.1341 103.694 10.4958L103.117 12.892H105.115V12.9372ZM114.481 14.1579H115.102C115.857 14.1579 116.39 13.977 116.7 13.6153C117.011 13.2536 117.189 12.6659 117.189 11.8069C117.189 11.1739 117.055 10.7218 116.745 10.4053C116.434 10.1341 115.946 9.99844 115.28 9.99844H114.481V14.1579ZM110.708 17.187V6.6076H116.611C118.076 6.6076 119.142 7.0145 119.852 7.78309C120.562 8.55168 120.917 9.72717 120.917 11.2644C120.917 13.3441 120.518 14.836 119.719 15.7855C118.92 16.7349 117.677 17.187 115.946 17.187H110.708ZM122.338 17.187V6.6076H130.639V9.68196H126.066V10.9027H130.639V13.2536H126.066V14.5648H130.639V17.2322H122.338V17.187ZM135.566 10.4958C135.655 11.0383 135.699 11.6713 135.743 12.3042C135.788 12.9372 135.788 13.7058 135.788 14.5196V17.187H132.37V6.6076H137.164L138.14 9.50112C138.274 9.90802 138.407 10.3149 138.496 10.7218C138.584 11.1287 138.673 11.5808 138.718 12.0329H138.806C138.851 11.6713 138.895 11.2644 138.984 10.8575C139.073 10.4505 139.206 9.99844 139.383 9.4559L140.36 6.6076H145.021V17.187H141.603V14.5196C141.603 13.751 141.603 13.0276 141.647 12.3494C141.692 11.6713 141.736 11.0835 141.825 10.4958H141.647C141.558 10.9931 141.425 11.4904 141.292 11.9425C141.159 12.4398 141.026 12.892 140.848 13.3441L139.561 17.1418H137.652L136.409 13.3441C136.187 12.7111 136.054 12.1686 135.921 11.7165C135.788 11.2644 135.699 10.8574 135.655 10.4505H135.566V10.4958ZM148.883 17.187V13.8414L145.642 6.6076H149.771L150.525 9.09421C150.614 9.36548 150.658 9.63675 150.703 9.95323C150.747 10.2697 150.791 10.5862 150.836 10.9027H150.925C150.969 10.541 151.013 10.1793 151.058 9.8628C151.102 9.54633 151.191 9.32027 151.235 9.09421L151.99 6.6076H155.985L152.745 14.0222V17.2322H148.883V17.187Z" fill="white"/>
</g>
<defs>
<clipPath id="clip0_199_194">
<rect width="216" height="80.069" fill="white" transform="translate(0 0.594521)"/>
</clipPath>
</defs>
</svg>
