<svg width="72" height="72" viewBox="0 0 72 72" fill="none" xmlns="http://www.w3.org/2000/svg">
<path d="M51.3484 46.9278L40.4733 53.262C40.0574 53.5043 39.6358 53.6908 39.2012 53.8228C39.335 53.5548 39.4445 53.2647 39.5279 52.9539C40.1057 50.7967 38.8263 48.5453 36.615 47.8285C36.5668 47.8129 36.5177 47.8005 36.4678 47.7915C33.3559 47.2303 30.2783 46.1177 27.8054 45.2237C26.9427 44.9118 26.1277 44.6172 25.4335 44.3921C22.5893 43.4694 20.0335 44.603 17.9078 45.8335L9.95686 50.4368L9.2737 49.2297C8.53317 47.9216 6.86634 47.4597 5.55839 48.1999L2.50725 49.9268C1.19901 50.667 0.736919 52.3337 1.47745 53.6421L10.4481 69.4928C10.8059 70.1249 11.39 70.5804 12.0929 70.7753C12.3361 70.8427 12.5827 70.876 12.8281 70.876C13.2921 70.876 13.7499 70.7566 14.1634 70.5226L17.2147 68.7956C18.5229 68.055 18.9848 66.3884 18.2443 65.0804L17.3976 63.5843L19.0471 62.632L32.9118 66.3469C33.6944 66.5567 34.473 66.6608 35.2388 66.6608C36.7881 66.6608 38.2849 66.2341 39.6533 65.3917L59.3889 53.2394C61.2585 52.0882 61.8547 49.1926 60.6398 47.1641C60.0514 46.1818 57.6424 43.2623 51.3484 46.9278ZM16.1064 66.8375L13.0551 68.5645C12.8308 68.6915 12.5334 68.6094 12.4061 68.3847L3.43565 52.5341C3.30853 52.3094 3.39079 52.0123 3.61537 51.8851L6.66665 50.1583C6.73851 50.1176 6.81768 50.0984 6.89643 50.0984C7.06392 50.0984 7.22915 50.1854 7.31564 50.3383L16.2862 66.1888C16.4134 66.4131 16.3311 66.7104 16.1064 66.8375ZM58.2092 51.3235L38.4738 63.4759C36.9474 64.4154 35.2719 64.6501 33.4942 64.1735L19.1795 60.3378C18.8913 60.2606 18.5842 60.301 18.3259 60.4502L16.2895 61.6258L11.0654 52.395L19.0356 47.7806C20.8173 46.749 22.7419 45.8841 24.7396 46.5321C25.3986 46.7457 26.1595 47.0209 27.0407 47.3394C29.5718 48.2545 32.7167 49.3914 35.986 49.9906C37.0352 50.3632 37.6217 51.3752 37.3547 52.3714C37.003 53.6837 35.8995 53.8466 35.0193 53.7467C33.427 53.4188 31.9108 52.9861 30.3066 52.5281C29.542 52.3097 28.7515 52.084 27.9384 51.866C27.3384 51.7054 26.7215 52.0615 26.5606 52.6615C26.3997 53.2616 26.7561 53.8785 27.3561 54.0394C28.1513 54.2524 28.9329 54.4756 29.6887 54.6915C31.3515 55.1663 32.9222 55.6149 34.6164 55.9613C34.6237 55.9628 34.6309 55.9633 34.6382 55.9647C34.646 55.9661 34.6534 55.9683 34.6612 55.9696L36.0138 56.1894C38.0751 56.519 39.9038 56.1974 41.6058 55.2061L52.4809 48.872C55.5258 47.0987 57.8543 46.8921 58.7094 48.32C59.2936 49.2957 59.0412 50.8113 58.2092 51.3235ZM7.47314 53.0802C7.56018 53.6756 7.14815 54.2287 6.55275 54.3157C5.95748 54.4027 5.40426 53.9907 5.31722 53.3953C5.23017 52.8 5.6422 52.2468 6.23761 52.1598C6.83301 52.0727 7.38609 52.4849 7.47314 53.0802ZM32.2544 16.2932C31.1668 16.2932 30.2108 16.9876 29.8747 18.0222C29.5379 19.0585 29.9048 20.1839 30.7875 20.8228L35.0707 23.9221C35.1681 23.9927 35.2 24.0906 35.1625 24.2051L33.5189 29.2303C33.1804 30.266 33.5453 31.3921 34.4266 32.0323C34.8667 32.352 35.3821 32.5118 35.8974 32.5118C36.4143 32.5118 36.9313 32.3509 37.372 32.0295L41.6433 28.9136C41.7406 28.8426 41.8436 28.8429 41.9406 28.9136L46.2118 32.0295C47.0923 32.6717 48.276 32.6727 49.1575 32.0321C50.0388 31.3917 50.4033 30.2656 50.0648 29.23L48.4213 24.2051C48.3839 24.0906 48.4157 23.9929 48.5131 23.9223L52.7963 20.8229C53.6791 20.1842 54.046 19.0586 53.7092 18.0224C53.3729 16.9876 52.4172 16.2934 51.3296 16.2934C51.3279 16.2934 51.3263 16.2934 51.3247 16.2934L46.0376 16.3035C46.0374 16.3035 46.0372 16.3035 46.0369 16.3035C45.9168 16.3035 45.8341 16.2432 45.7971 16.1287L44.1729 11.0974C43.8382 10.0605 42.8812 9.3638 41.7914 9.3638C40.702 9.36394 39.745 10.0606 39.4102 11.0974L37.7863 16.1287C37.7491 16.243 37.6662 16.3035 37.5462 16.3035C37.5459 16.3035 37.5457 16.3035 37.5455 16.3035L32.2586 16.2934C32.2577 16.2932 32.256 16.2932 32.2544 16.2932ZM37.5468 18.5535C38.6365 18.5535 39.593 17.8574 39.9281 16.82L41.5522 11.7887C41.5892 11.6744 41.6723 11.6138 41.7922 11.6138C41.9123 11.6138 41.9953 11.6741 42.0323 11.7885L43.6565 16.8197C43.9912 17.8574 44.9477 18.5536 46.0377 18.5536H46.0426L51.3297 18.5435H51.3304C51.4502 18.5435 51.5329 18.6038 51.57 18.7179C51.6072 18.8321 51.5754 18.9297 51.4781 19.0001L47.1951 22.0995C46.3102 22.7395 45.9441 23.8667 46.2835 24.9047L47.9269 29.9294C47.9644 30.0437 47.9326 30.1414 47.8356 30.212C47.7386 30.2828 47.6356 30.2823 47.5386 30.2117L43.2674 27.096C42.3855 26.4527 41.2002 26.4527 40.3179 27.096L36.0466 30.2119C35.9497 30.2827 35.8468 30.2826 35.7496 30.212C35.6526 30.1414 35.6208 30.0437 35.6582 29.9296L37.3017 24.9047C37.641 23.8672 37.275 22.7399 36.3904 22.0996L32.1073 19.0001C32.0099 18.9298 31.978 18.8321 32.0153 18.7176C32.0524 18.6036 32.1352 18.5434 32.2549 18.5434H32.2556L37.5426 18.5535H37.5468ZM40.6671 6.36919V2.25C40.6671 1.62872 41.1708 1.125 41.7921 1.125C42.4134 1.125 42.9171 1.62872 42.9171 2.25V6.36919C42.9171 6.99047 42.4134 7.49419 41.7921 7.49419C41.1708 7.49419 40.6671 6.99061 40.6671 6.36919ZM51.2992 11.4321C50.8599 10.9928 50.8599 10.2805 51.2992 9.84122L54.212 6.92845C54.6517 6.48914 55.3638 6.48928 55.803 6.92845C56.2423 7.36777 56.2423 8.08003 55.803 8.51934L52.8902 11.4321C52.6706 11.6518 52.3826 11.7616 52.0947 11.7616C51.8067 11.7617 51.5189 11.6518 51.2992 11.4321ZM27.7815 8.51948C27.3422 8.08017 27.3422 7.36791 27.7815 6.92859C28.2208 6.48942 28.9329 6.48914 29.3725 6.92859L32.2853 9.84136C32.7246 10.2807 32.7246 10.9929 32.2853 11.4323C32.0656 11.6519 31.7778 11.7617 31.4898 11.7617C31.2019 11.7617 30.9139 11.6519 30.6943 11.4323L27.7815 8.51948ZM70.7656 28.286C70.4715 27.38 69.6346 26.772 68.6826 26.772C68.681 26.772 68.6795 26.772 68.6779 26.772L64.6295 26.7798L63.3859 22.9271C63.0929 22.0192 62.255 21.4093 61.3009 21.4093C60.3469 21.4095 59.5092 22.0193 59.2161 22.9271L57.9724 26.7798L53.9241 26.772C53.9224 26.772 53.9212 26.772 53.9196 26.772C52.9676 26.772 52.1307 27.3798 51.8363 28.286C51.5415 29.1932 51.8627 30.1785 52.6356 30.7378L55.9154 33.1111L54.657 36.9589C54.3605 37.8657 54.6797 38.8517 55.4514 39.4124C55.8367 39.6924 56.288 39.8323 56.7393 39.8323C57.192 39.8323 57.6446 39.6915 58.0305 39.41L61.3012 37.0242L64.5719 39.41C65.3427 39.9724 66.3793 39.9731 67.1509 39.4124C67.9223 38.8517 68.2417 37.8658 67.9453 36.9591L66.687 33.1113L69.9666 30.738C70.7393 30.1785 71.0605 29.193 70.7656 28.286ZM65.3329 31.3135C64.558 31.8739 64.2374 32.861 64.5347 33.7695L65.7495 37.4843L62.5921 35.181C61.8198 34.6175 60.7821 34.6177 60.0098 35.181L56.8523 37.4843L58.0672 33.7694C58.3642 32.861 58.0436 31.8739 57.2691 31.3137L54.1027 29.0225L58.0111 29.0299H58.0153C58.9693 29.0299 59.8069 28.4205 60.1002 27.5122L61.3009 23.7928L62.5014 27.5123C62.7947 28.4206 63.6322 29.0301 64.5863 29.0301H64.5905L68.4989 29.0226L65.3329 31.3135ZM13.5484 30.7378L16.8282 33.1111L15.5699 36.9589C15.2733 37.8657 15.5925 38.8517 16.3643 39.4124C16.7497 39.6925 17.201 39.8325 17.6521 39.8325C18.1048 39.8325 18.5573 39.6917 18.9432 39.41L22.214 37.0242L25.4848 39.41C26.2554 39.9724 27.292 39.9731 28.0637 39.4124C28.8352 38.8517 29.1546 37.8658 28.8581 36.9591L27.5998 33.1113L30.8795 30.738C31.6523 30.1787 31.9735 29.1935 31.6789 28.2859C31.3843 27.38 30.5474 26.7722 29.5957 26.7722C29.5942 26.7722 29.5926 26.7722 29.5911 26.7722L25.5426 26.7799L24.2991 22.9272C24.006 22.0193 23.1682 21.4095 22.214 21.4095C21.26 21.4096 20.4223 22.0195 20.1292 22.9272L18.8856 26.7799L14.8374 26.7722C14.8357 26.7722 14.8344 26.7722 14.8329 26.7722C13.8809 26.7722 13.0439 27.38 12.7494 28.2862C12.4544 29.1932 12.7757 30.1785 13.5484 30.7378ZM18.9241 29.0299H18.9283C19.8827 29.0299 20.7203 28.4203 21.0132 27.5122L22.2139 23.7928L23.4144 27.5123C23.7077 28.4206 24.5452 29.0301 25.4993 29.0301H25.5035L29.4119 29.0226L26.2454 31.3138C25.4709 31.8742 25.1503 32.8612 25.4475 33.7697L26.6624 37.4844L23.5049 35.1811C23.1188 34.8995 22.6663 34.7586 22.2137 34.7586C21.7612 34.7586 21.3087 34.8995 20.9225 35.1811L17.7651 37.4844L18.9799 33.7697C19.2769 32.8612 18.9563 31.8742 18.1819 31.314L15.0154 29.0228L18.9241 29.0299Z" fill="white"/>
</svg>
