<svg width="72" height="72" viewBox="0 0 72 72" fill="none" xmlns="http://www.w3.org/2000/svg">
<path d="M70.2792 26.7886C64.2266 25.5656 58.0946 26.2517 52.0546 28.8289C51.5452 29.0464 51.2906 29.6208 51.4719 30.1442L52.1337 32.0552C49.4154 32.056 47.1574 31.344 44.7878 30.5939C44.0671 30.3657 43.3218 30.1299 42.5558 29.9116C38.9921 28.8972 35.4006 29.771 32.7014 32.309L32.3688 32.6216C27.7587 33.6619 24.576 33.5957 20.7706 32.3316L21.5282 30.1442C21.7095 29.6208 21.4549 29.0464 20.9454 28.8289C14.9055 26.2519 8.77364 25.5653 2.72086 26.7886C2.22881 26.888 1.875 27.3205 1.875 27.8225V53.9897C1.875 54.5723 2.34708 55.0444 2.92969 55.0444H12.1541C12.6036 55.0444 13.0036 54.7596 13.1507 54.3348L13.5654 53.1372C17.0836 54.4607 19.7958 57.2826 21.3091 58.8582C21.4611 59.0165 21.602 59.1632 21.7315 59.2958L32.5957 70.4281C33.2694 71.1183 34.1778 71.5017 35.1535 71.5077C35.1614 71.5078 35.169 71.5078 35.1767 71.5078C36.158 71.5078 37.0777 71.1282 37.7687 70.4372C38.2028 70.0031 38.5043 69.486 38.6737 68.9365C40.2877 69.8383 42.3698 69.6043 43.74 68.2343C44.4523 67.5219 44.8576 66.617 44.9557 65.6855C45.3297 65.7911 45.7207 65.8457 46.1208 65.8457C47.2552 65.8457 48.3196 65.4062 49.1175 64.6082C49.8828 63.8429 50.2936 62.855 50.35 61.8511C51.7021 62.1312 53.166 61.748 54.2137 60.7008C55.7598 59.1546 55.857 56.7389 54.5017 55.0358C54.8666 54.9638 55.2301 54.8554 55.588 54.7094C56.6722 54.267 57.6727 53.7642 58.6405 53.278C58.8847 53.1554 59.1226 53.0361 59.3591 52.9189L59.8495 54.3348C59.9966 54.7596 60.3967 55.0444 60.8461 55.0444H70.0705C70.6531 55.0444 71.1252 54.5723 71.1252 53.9897V27.8225C71.1251 27.3205 70.7713 26.888 70.2792 26.7886ZM11.4033 52.935H3.98452V28.6989C9.0345 27.8394 14.1473 28.4097 19.2084 30.3966L11.4033 52.935ZM52.722 59.209C51.8918 60.0388 50.5414 60.0388 49.7117 59.209L43.075 52.4231C42.6683 52.0062 42.0005 51.998 41.5837 52.405C41.1667 52.8118 41.1587 53.4795 41.5656 53.8963L47.6171 60.0973C47.6183 60.0986 47.6196 60.0996 47.6209 60.1009C47.6227 60.1027 47.6243 60.1048 47.6261 60.1066C48.4559 60.9363 48.4559 62.2867 47.6261 63.1166C46.7961 63.9465 45.4454 63.9464 44.616 63.117L37.6975 56.0492C37.2906 55.6322 36.6227 55.6241 36.2062 56.031C35.7892 56.4379 35.7812 57.1055 36.1881 57.5224L42.2397 63.7234C42.2411 63.7248 42.2427 63.726 42.2442 63.7274C42.2458 63.729 42.2472 63.7308 42.2487 63.7324V63.7325C42.6484 64.132 42.8683 64.6665 42.8683 65.2376C42.8683 65.8087 42.6484 66.3431 42.249 66.7424C41.4188 67.5723 40.0683 67.5721 39.2386 66.7427L31.7266 59.0815C31.3196 58.6645 30.6518 58.6564 30.2353 59.0633C29.8183 59.4702 29.8103 60.1378 30.2171 60.5546L36.2686 66.7555C36.27 66.7569 36.2716 66.7582 36.2731 66.7597C36.2747 66.7613 36.2761 66.7631 36.2776 66.7646C36.8787 67.366 36.8788 68.3443 36.2778 68.9456C35.9832 69.2402 35.5905 69.3991 35.1671 69.3984C34.7596 69.3959 34.3826 69.2383 34.1058 68.9549L23.2417 57.8226C23.1158 57.6936 22.9789 57.5509 22.8311 57.3971C21.189 55.6873 18.2442 52.6235 14.2566 51.1432L20.0807 34.3253C22.3537 35.0817 24.453 35.4527 26.6974 35.4527C27.6189 35.4527 28.5667 35.3877 29.5591 35.2637L27.1185 37.5585C25.951 38.6564 25.3339 40.0837 25.3339 41.6864V52.2839C25.3339 52.8665 25.806 53.3386 26.3886 53.3386C30.934 53.3386 35.6357 50.4637 35.6357 45.6523C35.6357 43.9916 36.9448 42.8045 37.9483 41.9841L49.4418 53.4707C49.9963 54.0249 50.6324 54.4455 51.314 54.7264L52.706 56.1816C53.5399 57.0542 53.5472 58.384 52.722 59.209ZM57.6934 51.3931C56.7619 51.8609 55.7988 52.345 54.7908 52.7562C53.421 53.3154 51.979 53.0246 50.9325 51.9789L38.7618 39.8158C38.3663 39.4207 37.7316 39.4027 37.3145 39.7745C37.2025 39.8742 37.0492 39.9979 36.8718 40.1411C35.7025 41.0851 33.5257 42.8421 33.5257 45.6525C33.5257 47.6356 32.36 48.9219 31.3821 49.6517C30.2978 50.461 28.903 50.9916 27.4427 51.1662V41.6866C27.4427 40.6517 27.8091 39.804 28.563 39.0953L34.1463 33.8456C36.2914 31.8285 39.1461 31.1339 41.9782 31.9403C42.7146 32.1498 43.4449 32.3811 44.1511 32.6047C46.7725 33.4344 49.478 34.2886 52.8589 34.1494L58.6632 50.9097C58.3358 51.0705 58.0115 51.2332 57.6934 51.3931ZM69.0157 52.935H61.5969L53.7918 30.3968C58.8527 28.4097 63.9653 27.8395 69.0157 28.699V52.935ZM11.9648 24.9744H26.2431V27.9592C26.2431 28.5418 26.7151 29.0139 27.2977 29.0139H45.7023C46.2849 29.0139 46.757 28.5418 46.757 27.9592V24.9744H61.0352C61.6178 24.9744 62.0899 24.5023 62.0899 23.9197V19.5099C62.0899 15.9026 59.9384 12.7468 56.7521 11.3645C57.7943 10.2095 58.4295 8.68751 58.4295 7.02082C58.4295 3.42097 55.4703 0.49231 51.833 0.49231C48.1956 0.49231 45.2364 3.42097 45.2364 7.02082C45.2364 8.68892 45.8726 10.2122 46.9165 11.3675C44.9009 12.2488 43.2668 13.8576 42.3573 15.8771C42.0563 15.7015 41.7428 15.5442 41.4192 15.4039C42.4613 14.249 43.0965 12.727 43.0965 11.0604C43.0965 7.46042 40.1374 4.53176 36.5001 4.53176C32.8627 4.53176 29.9035 7.46042 29.9035 11.0604C29.9035 12.7271 30.5387 14.2491 31.5809 15.404C31.2575 15.5444 30.9439 15.7016 30.6429 15.8772C29.7335 13.8576 28.0993 12.249 26.0839 11.3677C27.1277 10.2125 27.7639 8.6892 27.7639 7.02111C27.7639 3.42125 24.8048 0.492591 21.1675 0.492591C17.5301 0.492591 14.5709 3.42125 14.5709 7.02111C14.5709 8.68779 15.2061 10.2099 16.2483 11.3647C13.062 12.7471 10.9104 15.9028 10.9104 19.5102V23.92C10.9102 24.5022 11.3824 24.9744 11.9648 24.9744ZM44.6476 26.9044H28.3526V23.5493C28.3526 20.3616 30.5555 17.6349 33.6374 16.9412C34.5038 17.3559 35.475 17.5887 36.5003 17.5887C37.5254 17.5887 38.4967 17.3559 39.363 16.9412C42.4449 17.6349 44.6478 20.3616 44.6478 23.5493V26.9044H44.6476ZM51.833 2.60154C54.3072 2.60154 56.3201 4.58393 56.3201 7.02068C56.3201 9.45743 54.3072 11.44 51.833 11.44C49.3587 11.44 47.3458 9.45743 47.3458 7.02068C47.3458 4.58393 49.3587 2.60154 51.833 2.60154ZM48.971 12.9022C49.8371 13.3167 50.8081 13.5493 51.833 13.5493C52.8582 13.5493 53.8295 13.3165 54.6959 12.9018C57.7778 13.5957 59.9807 16.3223 59.9807 19.5099V22.865H46.7293C46.5618 20.6664 45.595 18.6739 44.0934 17.2026C44.8804 15.0431 46.7212 13.4114 48.971 12.9022ZM36.5001 6.641C38.9743 6.641 40.9872 8.62353 40.9872 11.0603C40.9872 13.497 38.9743 15.4793 36.5001 15.4793C34.0258 15.4793 32.0129 13.4969 32.0129 11.0601C32.0129 8.62339 34.0258 6.641 36.5001 6.641ZM21.1673 2.60154C23.6415 2.60154 25.6544 4.58393 25.6544 7.02068C25.6544 9.45743 23.6415 11.44 21.1673 11.44C18.693 11.44 16.6801 9.45743 16.6801 7.02068C16.6801 4.58393 18.693 2.60154 21.1673 2.60154ZM13.0195 19.5097C13.0195 16.3222 15.2224 13.5956 18.3044 12.9016C19.1707 13.3163 20.142 13.5492 21.1673 13.5492C22.1922 13.5492 23.1631 13.3166 24.0293 12.902C26.2791 13.4112 28.12 15.0428 28.9069 17.2025C27.4053 18.6736 26.4385 20.6661 26.271 22.8649H13.0195V19.5097Z" fill="white"/>
</svg>
