<svg width="72" height="72" viewBox="0 0 72 72" fill="none" xmlns="http://www.w3.org/2000/svg">
<path d="M61.9247 20.6525L44.8457 3.57353C44.7031 3.42601 44.5317 3.30935 44.3422 3.23081C44.1527 3.15226 43.949 3.11349 43.7439 3.11691H15.8478C14.1945 3.11691 12.6089 3.77368 11.4398 4.94273C10.2708 6.11179 9.61401 7.69738 9.61401 9.35067V62.6494C9.61401 64.3027 10.2708 65.8883 11.4398 67.0573C12.6089 68.2264 14.1945 68.8831 15.8478 68.8831H56.1475C57.8008 68.8831 59.3864 68.2264 60.5555 67.0573C61.7245 65.8883 62.3813 64.3027 62.3813 62.6494V21.7543C62.38 21.3413 62.2159 20.9454 61.9247 20.6525ZM57.0608 20.1959H47.64C47.02 20.1959 46.4254 19.9496 45.987 19.5112C45.5486 19.0728 45.3023 18.4782 45.3023 17.8582V8.43743L57.0608 20.1959ZM56.1475 65.7663H15.8525C15.0258 65.7663 14.233 65.4379 13.6485 64.8533C13.064 64.2688 12.7356 63.476 12.7356 62.6494V9.35067C12.7356 8.52402 13.064 7.73123 13.6485 7.1467C14.233 6.56218 15.0258 6.23379 15.8525 6.23379H42.1901V17.8582C42.1901 19.3048 42.7648 20.6922 43.7877 21.7152C44.8106 22.7381 46.198 23.3127 47.6447 23.3127H59.2691V62.6494C59.2691 63.0591 59.1883 63.4648 59.0314 63.8432C58.8744 64.2217 58.6444 64.5655 58.3545 64.855C58.0646 65.1445 57.7204 65.374 57.3417 65.5303C56.963 65.6867 56.5572 65.7669 56.1475 65.7663Z" fill="white"/>
<path d="M29.7397 27.1169C30.988 27.1169 32.2083 26.7467 33.2463 26.0532C34.2842 25.3597 35.0932 24.3739 35.5709 23.2206C36.0486 22.0673 36.1736 20.7982 35.9301 19.5739C35.6865 18.3495 35.0854 17.2249 34.2027 16.3422C33.32 15.4595 32.1954 14.8583 30.971 14.6148C29.7467 14.3713 28.4776 14.4963 27.3243 14.974C26.171 15.4517 25.1852 16.2607 24.4917 17.2986C23.7982 18.3366 23.428 19.5569 23.428 20.8052C23.43 22.4786 24.0957 24.0828 25.2789 25.266C26.4621 26.4492 28.0663 27.1148 29.7397 27.1169ZM29.7397 17.6104C30.3715 17.6104 30.9892 17.7978 31.5146 18.1488C32.04 18.4999 32.4495 18.9988 32.6913 19.5826C32.9331 20.1664 32.9964 20.8088 32.8731 21.4285C32.7498 22.0482 32.4455 22.6175 31.9987 23.0643C31.5519 23.5111 30.9827 23.8154 30.3629 23.9386C29.7432 24.0619 29.1008 23.9986 28.5171 23.7568C27.9333 23.515 27.4343 23.1055 27.0833 22.5802C26.7322 22.0548 26.5449 21.4371 26.5449 20.8052C26.5461 19.9583 26.8831 19.1464 27.482 18.5475C28.0808 17.9486 28.8927 17.6117 29.7397 17.6104Z" fill="white"/>
<path d="M20.6058 39.1948C21.0191 39.1948 21.4155 39.0306 21.7078 38.7383C22.0001 38.4461 22.1642 38.0497 22.1642 37.6363V36.6857C22.1663 35.1545 22.7755 33.6867 23.8582 32.604C24.9408 31.5213 26.4087 30.9122 27.9398 30.9101H31.5398C33.071 30.9122 34.5388 31.5213 35.6215 32.604C36.7042 33.6867 37.3134 35.1545 37.3154 36.6857V37.6363C37.3154 38.0497 37.4796 38.4461 37.7719 38.7383C38.0641 39.0306 38.4605 39.1948 38.8739 39.1948C39.2872 39.1948 39.6836 39.0306 39.9758 38.7383C40.2681 38.4461 40.4323 38.0497 40.4323 37.6363V36.6857C40.4294 34.3281 39.4916 32.068 37.8246 30.4009C36.1575 28.7339 33.8974 27.7961 31.5398 27.7932H27.9398C25.5823 27.7961 23.3221 28.7339 21.6551 30.4009C19.9881 32.068 19.0503 34.3281 19.0474 36.6857V37.6363C19.0474 38.0497 19.2116 38.4461 19.5038 38.7383C19.7961 39.0306 20.1925 39.1948 20.6058 39.1948Z" fill="white"/>
<path d="M19.7376 50.598H38.6493C39.0627 50.598 39.4591 50.4338 39.7513 50.1415C40.0436 49.8492 40.2078 49.4528 40.2078 49.0395C40.2078 48.6262 40.0436 48.2298 39.7513 47.9375C39.4591 47.6453 39.0627 47.4811 38.6493 47.4811H19.7376C19.3243 47.4811 18.9279 47.6453 18.6357 47.9375C18.3434 48.2298 18.1792 48.6262 18.1792 49.0395C18.1792 49.4528 18.3434 49.8492 18.6357 50.1415C18.9279 50.4338 19.3243 50.598 19.7376 50.598Z" fill="white"/>
<path d="M49.348 55.6877H19.7376C19.3243 55.6877 18.9279 55.8519 18.6357 56.1442C18.3434 56.4365 18.1792 56.8329 18.1792 57.2462C18.1792 57.6595 18.3434 58.0559 18.6357 58.3482C18.9279 58.6404 19.3243 58.8046 19.7376 58.8046H49.348C49.7614 58.8046 50.1578 58.6404 50.45 58.3482C50.7423 58.0559 50.9065 57.6595 50.9065 57.2462C50.9065 56.8329 50.7423 56.4365 50.45 56.1442C50.1578 55.8519 49.7614 55.6877 49.348 55.6877Z" fill="white"/>
</svg>
