<svg width="72" height="72" viewBox="0 0 72 72" fill="none" xmlns="http://www.w3.org/2000/svg">
<path d="M33.75 61.875H27C26.3782 61.875 25.875 62.3788 25.875 63C25.875 63.6212 26.3782 64.125 27 64.125H33.75C34.3718 64.125 34.875 63.6212 34.875 63C34.875 62.3788 34.3718 61.875 33.75 61.875Z" fill="#0D0D0D"/>
<path d="M30.3749 19.1251C25.0057 19.1251 19.9051 20.9217 15.7499 24.2113V23.0312C15.7499 19.4991 13.7878 16.3235 10.6281 14.7436C10.3118 14.5855 9.93816 14.5855 9.62181 14.7436C6.46214 16.3235 4.50003 19.4991 4.50003 23.0312V39.3749H3.37503C2.75324 39.3749 2.25003 39.8787 2.25003 40.4999V46.1249H1.12491C0.816213 46.1249 0.520676 46.2524 0.307489 46.4771C0.095426 46.7017 -0.015499 47.0039 0.00205098 47.3126L1.00949 65.4368C1.10838 67.2249 2.58708 68.6251 4.37785 68.6251H46.1249C50.4667 68.6251 53.9999 65.0924 53.9999 60.7501V58.5001C53.9999 57.8788 53.4967 57.3751 52.8749 57.3751H48.9095C52.203 53.2244 53.9999 48.1213 53.9999 42.7501C53.9999 29.723 43.4014 19.1251 30.3749 19.1251ZM38.7617 57.3751H19.6884L20.2478 47.3127C20.2653 47.004 20.1544 46.7018 19.9423 46.4772C19.7292 46.2525 19.4337 46.1251 19.1249 46.1251H17.9999V40.5001C17.9999 39.8788 17.4967 39.3751 16.8749 39.3751H15.7499V34.3639C18.7632 29.1232 24.3382 25.8751 30.3749 25.8751C39.6804 25.8751 47.2499 33.4452 47.2499 42.7501C47.2499 48.7868 44.0024 54.3617 38.7617 57.3751ZM10.1249 17.0332C11.0626 17.6001 11.8251 18.3709 12.3944 19.2635C11.0509 21.2525 9.05189 22.6956 6.74991 23.3359V23.0312C6.74991 20.5493 8.0287 18.3004 10.1249 17.0332ZM6.74991 25.654C9.33134 25.0766 11.6412 23.6804 13.3595 21.6968C13.4429 22.1321 13.4999 22.5755 13.4999 23.0312V39.3749H6.74991V25.654ZM4.49991 41.6251H15.7499V46.1251H4.49991V41.6251ZM4.37796 66.3751C3.78138 66.3751 3.28806 65.9082 3.25521 65.3122L2.31483 48.3751H17.9362L17.3745 58.4797C17.3744 58.4868 17.3704 58.4929 17.3704 58.5001L17.3727 58.5116L16.9946 65.3127C16.9617 65.9082 16.4683 66.3751 15.8719 66.3751H4.37796ZM51.7499 60.7501C51.7499 63.8515 49.2263 66.3751 46.1249 66.3751H19.0372C19.1428 66.0777 19.222 65.7676 19.2402 65.4374L19.5633 59.6251H51.7499V60.7501ZM42.6755 57.3751C46.9517 53.7769 49.4999 48.4445 49.4999 42.7501C49.4999 32.2043 40.9207 23.6251 30.3749 23.6251C24.681 23.6251 19.3481 26.1733 15.7499 30.4498V27.1905C19.7301 23.4465 24.8957 21.3751 30.3749 21.3751C42.1611 21.3751 51.7499 30.9639 51.7499 42.7501C51.7499 48.232 49.6756 53.4008 45.9262 57.3751H42.6755Z" fill="#0D0D0D"/>
<path d="M71.7583 10.9973C71.9188 10.5452 72 10.0745 72 9.59773C72 8.14153 71.2243 6.77207 69.9752 6.02338L69.6873 5.85092C64.2887 2.61103 57.2102 2.61159 51.8137 5.85036L51.5248 6.02338C50.2756 6.77207 49.5 8.14153 49.5 9.59773C49.5 10.0745 49.5813 10.5453 49.7428 11.0002L55.1347 26.0963L57.2541 65.3144C57.3551 67.1705 58.8899 68.6251 60.7499 68.6251C62.6099 68.6251 64.1447 67.1705 64.2457 65.3144L66.3651 26.0963L71.7583 10.9973ZM57.4377 27H64.0625L63.8192 31.5H57.6809L57.4377 27ZM51.75 9.59762C51.75 8.92746 52.1071 8.29734 52.6805 7.95354L52.9705 7.77995C57.6683 4.96082 63.8305 4.96037 68.5305 7.78052L68.8194 7.95354C69.3929 8.29746 69.7499 8.92746 69.7499 9.59762C69.7499 9.81733 69.7125 10.0355 69.639 10.243L64.4568 24.7499H57.0432L51.8621 10.2457C51.7874 10.0354 51.75 9.81733 51.75 9.59762ZM61.9981 65.1923C61.963 65.8554 61.4146 66.375 60.75 66.375C60.0854 66.375 59.5371 65.8554 59.5019 65.1923L57.8024 33.75H63.6975L61.9981 65.1923Z" fill="#0D0D0D"/>
</svg>
