<svg width="72" height="72" viewBox="0 0 72 72" fill="none" xmlns="http://www.w3.org/2000/svg">
<g clip-path="url(#clip0_2005_114)">
<path d="M51.7033 67.9202C51.1802 67.9202 50.6765 67.8424 50.218 67.6872C49.2764 67.368 48.5608 66.7319 48.1537 65.8664C45.1478 64.889 42.424 60.682 40.6138 54.1675L38.2226 45.5632L32.9543 38.8235L37.972 56.879C37.9728 56.8819 37.9735 56.8845 37.9744 56.8873C37.9751 56.89 37.9758 56.8927 37.9766 56.8953L40.3878 65.5715C40.6437 66.4924 40.1034 67.4501 39.183 67.7066C38.1348 67.998 37.0638 67.9914 36.1666 67.6873C35.2249 67.3681 34.5092 66.7321 34.1023 65.8665C31.0967 64.8889 28.3724 60.6808 26.5622 54.1676L25.8112 51.465C25.6553 50.9039 25.9838 50.3224 26.5451 50.1664C27.1062 50.0105 27.6877 50.3393 27.8436 50.9004L28.5947 53.603C29.9727 58.5616 31.687 61.4693 33.2194 62.8885L33.0955 62.4433C32.7313 61.1325 32.8958 59.7607 33.5588 58.5805C34.0557 57.6959 34.7932 56.9932 35.688 56.5373L30.4099 37.5446C30.1861 36.7397 30.5509 35.9147 31.2968 35.5382C32.043 35.1616 32.9231 35.3586 33.438 36.0166L40.0141 44.4294C40.0992 44.5383 40.1624 44.6632 40.1993 44.7965L42.6466 53.6028C43.517 56.735 44.6314 59.3602 45.8692 61.1948C46.325 61.8702 46.7968 62.435 47.2676 62.8753L47.1475 62.4429C46.4894 60.0746 47.629 57.6097 49.7388 56.5334L48.5685 52.3224C48.5662 52.3144 48.5643 52.307 48.5619 52.2989C48.5616 52.2978 48.5613 52.2965 48.5609 52.2955L45.6517 41.827L37.208 31.0136C36.8494 30.5545 36.9309 29.8916 37.3901 29.5332C37.8495 29.1748 38.5121 29.2564 38.8704 29.7154L47.4429 40.6937C47.528 40.8027 47.5909 40.9272 47.6279 41.0604L50.6004 51.7566C51.4692 54.8763 52.5801 57.4916 53.8137 59.3214C54.2704 59.9989 54.7432 60.5655 55.2153 61.0067L55.0952 60.5745C54.4376 58.2082 55.5747 55.7455 57.6809 54.6679C57.6278 54.5136 57.5855 54.3547 57.554 54.1913L53.0771 38.0865L45.9872 29.0067C44.2617 26.7974 43.2478 24.0691 43.1035 21.2725L41.1254 20.402C40.5921 20.1675 40.3501 19.5451 40.5847 19.012C40.8194 18.4788 41.4416 18.2371 41.9749 18.4713L60.6091 26.6712C62.4717 27.4907 63.6751 29.335 63.6751 31.3699V55.5117C63.6751 56.4678 62.8979 57.2458 61.9425 57.2462C61.9418 57.2462 61.9411 57.2462 61.9404 57.2462C61.4587 57.2462 60.9885 57.1887 60.5461 57.0783L62.3876 63.7024C62.6434 64.6241 62.1028 65.5818 61.1824 65.8377C60.1348 66.1292 59.0636 66.1225 58.1664 65.8184C57.2248 65.4992 56.5092 64.8633 56.1021 63.9978C55.2167 63.7098 54.3558 63.1415 53.5354 62.3167L54.44 65.5714C54.696 66.4923 54.1555 67.4501 53.235 67.7065C52.7219 67.8489 52.2038 67.9202 51.7033 67.9202ZM36.2728 58.6425C35.9142 58.8962 35.6157 59.2251 35.3976 59.6132C35.0096 60.3038 34.9138 61.1082 35.1277 61.878L35.9115 64.6982C36.0527 65.2067 36.3488 65.5216 36.8432 65.6892C37.241 65.8241 37.7388 65.8463 38.2499 65.7571L36.2728 58.6425ZM50.3235 58.639C49.331 59.3479 48.8341 60.6354 49.1795 61.8781L49.9632 64.6985C50.1045 65.2069 50.4006 65.5217 50.895 65.6893C51.2925 65.8242 51.7905 65.8464 52.3017 65.7573L50.3235 58.639ZM58.2708 56.7708C57.2785 57.4796 56.782 58.7669 57.1272 60.0095L57.9109 62.8297C58.0524 63.3384 58.3483 63.6532 58.8427 63.8207C59.2405 63.9557 59.7383 63.9778 60.2495 63.8886L58.2708 56.7708ZM61.5653 47.7308C60.4195 48.1481 59.5963 49.2553 59.5962 50.545L59.5959 53.4721C59.5959 54 59.7967 54.3828 60.2281 54.6764C60.5753 54.9131 61.049 55.0676 61.5653 55.1187V47.7308ZM45.3171 22.2465C45.6086 24.2276 46.4133 26.1253 47.6494 27.7082L54.8681 36.953C54.9532 37.062 55.016 37.1866 55.0529 37.3196L58.0712 48.1773C58.7739 46.8432 60.0497 45.8535 61.5653 45.5449V31.3697C61.5653 30.171 60.8565 29.0844 59.7592 28.6016L45.3171 22.2465ZM15.1037 53.8971C13.3591 53.8971 11.9396 52.4776 11.9396 50.733C11.9396 48.9884 13.3591 47.569 15.1037 47.569C16.8483 47.569 18.2678 48.9884 18.2678 50.733C18.2678 52.4776 16.8484 53.8971 15.1037 53.8971ZM15.1037 49.6783C14.5221 49.6783 14.049 50.1514 14.049 50.733C14.049 51.3146 14.5221 51.7877 15.1037 51.7877C15.6853 51.7877 16.1584 51.3146 16.1584 50.733C16.1584 50.1514 15.6853 49.6783 15.1037 49.6783ZM3.86719 51.772C3.28458 51.772 2.8125 51.2999 2.8125 50.7173V47.5532H1.05469C0.472078 47.5532 0 47.0811 0 46.4985C0 45.9159 0.472078 45.4438 1.05469 45.4438H2.8125V42.2798C2.8125 41.6972 3.28458 41.2251 3.86719 41.2251C4.4498 41.2251 4.92188 41.6972 4.92188 42.2798V45.4438H6.67969C7.2623 45.4438 7.73438 45.9159 7.73438 46.4985C7.73438 47.0811 7.2623 47.5532 6.67969 47.5532H4.92188V50.7173C4.92188 51.2997 4.4498 51.772 3.86719 51.772ZM25.6783 48.1047C25.2163 48.1047 24.7923 47.7989 24.6625 47.3321L22.4567 39.3944L7.93814 33.0058C3.11583 30.8838 0 26.1085 0 20.8399C0 20.2573 0.472078 19.7853 1.05469 19.7853C1.6373 19.7853 2.10938 20.2573 2.10938 20.8399C2.10938 25.2723 4.73091 29.2898 8.78766 31.0749L23.7638 37.665C24.0535 37.7923 24.2706 38.043 24.3553 38.3479L26.695 46.7673C26.8508 47.3284 26.5223 47.9098 25.9611 48.0658C25.8667 48.0922 25.7716 48.1047 25.6783 48.1047ZM17.2131 32.7437C16.6305 32.7437 16.1584 32.2716 16.1584 31.689V28.525H14.4006C13.818 28.525 13.3459 28.0529 13.3459 27.4703C13.3459 26.8877 13.818 26.4156 14.4006 26.4156H16.1584V23.2515C16.1584 22.6689 16.6305 22.1968 17.2131 22.1968C17.7957 22.1968 18.2678 22.6689 18.2678 23.2515V26.4156H20.0256C20.6082 26.4156 21.0803 26.8877 21.0803 27.4703C21.0803 28.0529 20.6082 28.525 20.0256 28.525H18.2678V31.689C18.2678 32.2716 17.7957 32.7437 17.2131 32.7437ZM37.3452 18.6416C37.2033 18.6416 37.0592 18.6127 36.921 18.552L12.036 7.60137C10.0152 6.71233 7.8712 6.26149 5.66381 6.26149H1.05469C0.472078 6.26149 0 5.78941 0 5.2068C0 4.62419 0.472078 4.15212 1.05469 4.15212H5.66381C8.16539 4.15212 10.5951 4.66315 12.8855 5.67072L37.7706 16.6212C38.3039 16.8559 38.5459 17.4783 38.3113 18.0114C38.1374 18.4063 37.7506 18.6416 37.3452 18.6416ZM52.2807 15.3692C50.5361 15.3692 49.1167 13.9497 49.1167 12.2051C49.1167 10.4606 50.5361 9.04108 52.2807 9.04108C54.0253 9.04108 55.4448 10.4606 55.4448 12.2051C55.4448 13.9497 54.0255 15.3692 52.2807 15.3692ZM52.2807 11.1505C51.6991 11.1505 51.226 11.6235 51.226 12.2051C51.226 12.7868 51.6991 13.2598 52.2807 13.2598C52.8623 13.2598 53.3354 12.7868 53.3354 12.2051C53.3354 11.6235 52.8623 11.1505 52.2807 11.1505ZM68.1328 14.6267C67.5502 14.6267 67.0781 14.1546 67.0781 13.572V10.408H65.3203C64.7377 10.408 64.2656 9.93588 64.2656 9.35327C64.2656 8.77066 64.7377 8.29858 65.3203 8.29858H67.0781V5.13452C67.0781 4.55191 67.5502 4.07983 68.1328 4.07983C68.7154 4.07983 69.1875 4.55191 69.1875 5.13452V8.29858H70.9453C71.5279 8.29858 72 8.77066 72 9.35327C72 9.93588 71.5279 10.408 70.9453 10.408H69.1875V13.572C69.1875 14.1546 68.7154 14.6267 68.1328 14.6267Z" fill="#0D0D0D"/>
</g>
<defs>
<clipPath id="clip0_2005_114">
<rect width="72" height="72" fill="white"/>
</clipPath>
</defs>
</svg>
