<svg width="72" height="72" viewBox="0 0 72 72" fill="none" xmlns="http://www.w3.org/2000/svg">
<g clip-path="url(#clip0_2005_445)">
<path d="M71.0603 0.938109C71.0568 0.934734 71.053 0.931781 71.0496 0.928406C70.454 0.338203 69.6334 0 68.7956 0H68.7914C68.0674 0 67.3586 0.248906 66.7961 0.700172C59.1392 6.81595 51.4541 13.1286 43.9533 19.4624C42.1293 21.0023 40.3039 22.5544 38.4801 24.1151L17.6567 3.29189C15.6004 1.23595 12.255 1.23623 10.1989 3.29189L0.309162 13.1818C-0.102729 13.5938 -0.102729 14.2615 0.309162 14.6734C0.721053 15.0851 1.38888 15.0851 1.80063 14.6734L8.70743 7.76672L10.2168 9.27605L3.3101 16.1827C2.89821 16.5947 2.89821 17.2624 3.3101 17.6743C3.51597 17.8802 3.78597 17.9831 4.05583 17.9831C4.32569 17.9831 4.59569 17.8802 4.80157 17.6743L11.7084 10.7677L13.2177 12.277L6.3109 19.1836C5.89901 19.5957 5.89901 20.2634 6.3109 20.6753C6.51677 20.8811 6.78677 20.9841 7.05663 20.9841C7.32649 20.9841 7.59649 20.8811 7.80236 20.6753L14.7092 13.7685L16.2185 15.2778L9.31183 22.1844C8.89994 22.5965 8.89994 23.2642 9.31183 23.676C9.51771 23.8819 9.78771 23.9849 10.0576 23.9849C10.3274 23.9849 10.5974 23.8819 10.8033 23.676L17.71 16.7694L19.2193 18.2787L12.3126 25.1854C11.9007 25.5974 11.9007 26.2651 12.3126 26.677C12.5185 26.8829 12.7885 26.9858 13.0584 26.9858C13.3282 26.9858 13.5982 26.8829 13.8041 26.677L20.7108 19.7703L22.2201 21.2797L15.3134 28.1863C14.9015 28.5983 14.9015 29.266 15.3134 29.6779C15.5193 29.8838 15.7893 29.9867 16.0592 29.9867C16.329 29.9867 16.599 29.8838 16.8049 29.6779L23.7116 22.7713L25.2209 24.2806L18.3142 31.1873C17.9023 31.5993 17.9023 32.267 18.3142 32.6789C18.5201 32.8847 18.7901 32.9877 19.06 32.9877C19.3298 32.9877 19.5998 32.8847 19.8057 32.6789L26.7124 25.7722L28.2218 27.2817L21.3152 34.1883C20.9033 34.6004 20.9033 35.268 21.3152 35.6799C21.521 35.8858 21.791 35.9888 22.0609 35.9888C22.3308 35.9888 22.6008 35.8858 22.8066 35.6799L29.7134 28.7731L31.2759 30.3356C28.0375 33.1559 24.8157 35.9928 21.6303 38.8333C21.6289 38.8333 21.6289 38.8333 21.6289 38.8349C20.6826 39.6765 19.6504 40.646 18.6322 41.5642C18.0084 42.0155 18.1272 42.8088 18.4367 43.1183C18.4367 43.1183 18.4367 43.1197 18.4381 43.1197C19.4534 44.3488 20.0145 45.9181 20.0145 47.5408C20.0145 49.4378 19.2847 51.2125 17.9587 52.5372C17.9454 52.5506 14.7916 55.7045 14.7778 55.7182C10.1913 60.4115 2.11422 57.2088 2.10958 50.5617C2.1124 46.5262 5.37166 43.1931 9.48944 43.1902C11.7323 43.1916 13.8262 44.19 15.2338 45.9267C15.6156 46.3973 16.3166 46.4482 16.761 46.0448C16.7666 46.0406 16.7709 46.0364 16.7765 46.0308L16.7863 46.0222C17.2803 45.5781 17.2455 44.7778 16.6935 44.3825C14.8907 42.2844 12.2681 41.0808 9.49647 41.0808H9.48241C4.20926 41.0808 -0.0058379 45.3748 0.000349595 50.5617C-0.00429103 54.4702 2.38422 57.9226 5.91771 59.3578C8.01583 60.2075 10.3142 60.266 12.3904 59.6004C10.4115 65.7564 15.0171 72 21.4184 72H21.4296C26.6603 72 30.9232 67.7655 30.9175 62.5134C30.9203 60.0173 29.9584 57.6619 28.2132 55.8786C28.2142 55.8775 30.3668 53.4305 30.3668 53.4305C34.1665 49.2023 37.9249 44.9549 41.6379 40.6972L43.2269 42.2862L36.3203 49.1929C35.9084 49.6049 35.9084 50.2726 36.3203 50.6845C36.5263 50.8904 36.7963 50.9933 37.0661 50.9933C37.336 50.9933 37.606 50.8904 37.812 50.6845L44.7187 43.7778L46.228 45.2872L39.3214 52.1938C38.9095 52.6058 38.9095 53.2735 39.3214 53.6854C39.5274 53.8913 39.7974 53.9942 40.0672 53.9942C40.3371 53.9942 40.6071 53.8913 40.8131 53.6854L47.7198 46.7788L49.2289 48.288L42.3223 55.1946C41.9104 55.6066 41.9104 56.2743 42.3223 56.6862C42.5283 56.8921 42.7983 56.995 43.0682 56.995C43.338 56.995 43.608 56.8921 43.814 56.6862L50.7207 49.7796L52.2299 51.2887L45.3232 58.1955C44.9113 58.6076 44.9113 59.2753 45.3232 59.6872C45.5292 59.893 45.7992 59.996 46.0691 59.996C46.339 59.996 46.609 59.893 46.815 59.6872L53.7216 52.7804L55.231 54.2897L48.3243 61.1963C47.9124 61.6084 47.9124 62.2761 48.3243 62.688C48.5303 62.8938 48.8003 62.9968 49.0702 62.9968C49.34 62.9968 49.61 62.8938 49.8161 62.688L56.7227 55.7813L58.2319 57.2905L51.3252 64.1971C50.9133 64.6092 50.9133 65.2769 51.3252 65.6888C51.5313 65.8946 51.8013 65.9976 52.0711 65.9976C52.341 65.9976 52.611 65.8946 52.817 65.6888L59.7236 58.7821L61.2328 60.2913L54.3262 67.1979C53.9143 67.61 53.9143 68.2777 54.3262 68.6896C54.5322 68.8954 54.8022 68.9984 55.0721 68.9984C55.3419 68.9984 55.6119 68.8954 55.8179 68.6896L62.7246 61.7829L64.2338 63.2921L57.3271 70.1987C56.9152 70.6108 56.9152 71.2785 57.3271 71.6903C57.5331 71.8962 57.8031 71.9992 58.073 71.9992C58.3428 71.9992 58.6129 71.8962 58.8189 71.6903L66.4703 64.0388C66.4706 64.0385 66.471 64.0381 66.4714 64.0378C66.4718 64.0375 66.4721 64.0371 66.4724 64.0367L68.7086 61.8005C69.7046 60.8044 70.2532 59.4802 70.2532 58.0715C70.2532 56.6629 69.7046 55.3386 68.7087 54.3426L47.8622 33.4976C55.9487 24.0642 63.788 14.6022 71.2992 5.20172C72.3184 3.92611 72.2155 2.0932 71.0603 0.938109ZM10.199 6.27511L11.6905 4.78364C12.9241 3.55008 14.9315 3.55008 16.1652 4.78364L36.8748 25.4933C35.5387 26.6411 34.2037 27.792 32.8714 28.9478L10.199 6.27511ZM67.2167 55.8352C67.8144 56.4327 68.1436 57.2272 68.1436 58.0724C68.1436 58.9175 67.8144 59.712 67.2167 60.3096L65.7252 61.801C65.0283 61.1044 44.5225 40.5984 43.0261 39.1022C44.1835 37.77 45.3369 36.4371 46.4846 35.1032L67.2167 55.8352ZM29.3846 51.3652C28.8735 50.9739 27.5105 50.2964 27.2838 48.372C27.2206 47.8406 26.772 47.4411 26.239 47.4411C25.6018 47.4411 25.1163 47.9945 25.1885 48.6197C25.1899 48.6197 25.1899 48.6197 25.1899 48.6197C25.391 50.3394 26.3248 51.8597 27.7507 52.7891C27.8253 52.8384 27.8998 52.8889 27.9771 52.9452C27.2456 53.7798 26.6418 54.4825 25.9493 55.2472C25.7567 55.461 25.6582 55.7491 25.6807 56.036C25.7018 56.3228 25.8439 56.5928 26.0674 56.7743C27.8375 58.2192 28.8065 60.2987 28.8082 62.5133C28.8053 66.5779 25.5308 69.8877 21.4256 69.8905C17.368 69.8851 14.0429 66.6149 14.0429 62.5133C14.0477 59.1753 16.1589 57.3877 16.321 57.1583L19.4499 54.0294C21.1737 52.3056 22.1245 49.9735 22.1245 47.5408C22.1259 45.7633 21.6168 44.0463 20.6551 42.5783C21.4808 41.8231 22.199 41.1531 23.033 40.4097L23.0373 40.4041C45.9049 20.0146 67.8433 2.48752 68.2556 2.25141C67.9729 2.5342 26.8226 43.6667 26.6328 43.8806C26.246 44.3166 26.2868 44.9845 26.7213 45.3698C27.1581 45.7588 27.8271 45.7132 28.2106 45.2812C28.3367 45.1375 69.4459 4.04339 69.7473 3.74203C69.6611 3.89377 52.6757 25.408 29.3846 51.3652Z" fill="#0D0D0D"/>
<path d="M13.2223 46.8388C9.89553 43.5122 4.2192 45.9093 4.21948 50.5669C4.21948 51.9747 4.76834 53.2987 5.76495 54.2952C6.79306 55.3231 8.14306 55.8368 9.49362 55.8368C10.8438 55.8368 12.1943 55.3229 13.2223 54.2952C15.2806 52.2373 15.2809 48.8969 13.2223 46.8388ZM11.731 52.8034C10.4973 54.0366 8.48998 54.0368 7.25628 52.8034C5.2805 50.8278 6.66397 47.4052 9.49362 47.4052C12.3314 47.4054 13.6977 50.8369 11.731 52.8034Z" fill="#0D0D0D"/>
<path d="M21.4257 57.2415C19.2571 57.2415 17.3943 58.4865 16.564 60.491C15.7297 62.5053 16.1639 64.7091 17.6972 66.242C18.7156 67.2601 20.0275 67.794 21.3823 67.794C22.0667 67.794 22.7622 67.6575 23.4358 67.3785C25.4486 66.5446 26.699 64.6805 26.699 62.5136C26.6989 59.6066 24.3334 57.2415 21.4257 57.2415ZM22.6283 65.4299C21.6847 65.8206 20.2857 65.8474 19.1884 64.7504C18.0905 63.6527 18.1196 62.2474 18.5127 61.2982C18.9026 60.3567 19.8726 59.3507 21.4256 59.3507C23.1702 59.3507 24.5895 60.7696 24.5895 62.5136C24.5895 64.0647 23.5764 65.0371 22.6283 65.4299Z" fill="#0D0D0D"/>
</g>
<defs>
<clipPath id="clip0_2005_445">
<rect width="72" height="72" fill="white"/>
</clipPath>
</defs>
</svg>
