<svg width="72" height="72" viewBox="0 0 72 72" fill="none" xmlns="http://www.w3.org/2000/svg">
<path d="M24.5914 67.3718C28.6965 68.1593 33.5981 68.6891 38.6224 68.6891C44.9573 68.6891 51.4879 67.8454 56.8586 65.6044C64.5503 62.397 68.7533 56.907 69.3506 49.2863C69.9143 42.0986 65.9261 35.8965 59.4259 33.8546C56.6426 32.9805 53.7311 33.1065 50.8399 33.7061L51.8321 32.832C52.1426 32.5586 52.2776 32.1356 52.1831 31.7318C52.0897 31.329 51.7815 31.0095 51.3821 30.9015C49.4044 30.366 47.8856 28.9845 46.2769 27.5209C45.5749 26.8819 44.8492 26.2215 44.0741 25.6275C41.5035 23.6565 38.2928 22.4314 33.9694 21.7721C29.8114 21.1365 26.3036 21.2006 23.247 21.9645C18.0709 23.2594 13.9815 26.9168 12.3075 31.7464L14.4338 32.4833C15.858 28.3736 19.3568 25.2574 23.7926 24.147C26.5545 23.4563 29.772 23.4056 33.6296 23.9963C37.5638 24.5959 40.4471 25.6815 42.705 27.4129C43.4048 27.9495 44.064 28.5503 44.7626 29.1848C46.0429 30.3503 47.3558 31.545 48.9622 32.3629L45.8044 35.1473C44.5016 35.6006 43.2214 36.0889 41.9782 36.5648C40.4224 37.161 38.9531 37.7235 37.5559 38.1735C32.6216 39.7598 27.4421 40.167 22.5788 39.3514C21.3536 39.1455 20.1217 38.7776 18.819 38.3884C18.3105 38.2365 17.7998 38.0846 17.2867 37.9406C16.6567 37.6166 15.0997 36.6435 14.3246 35.4026L12.4166 36.5951C12.5404 36.7943 12.6844 36.9776 12.8284 37.161C11.3422 37.1261 9.83587 37.3804 8.307 38.1499C4.62712 40.0039 2.25 43.8593 2.25 47.9745C2.25 63.0911 19.0654 66.3131 24.5914 67.3718ZM9.31838 40.1614C10.3894 39.6225 11.4761 39.4133 12.582 39.4133C13.9545 39.4133 15.3585 39.735 16.7974 40.1411C16.6646 41.0006 16.2968 42.3428 15.2471 42.8681L16.254 44.8808C18.045 43.9853 18.7178 42.0964 18.972 40.7801C19.3792 40.8994 19.7887 41.0175 20.2028 41.1266C20.088 42.0896 19.6943 43.965 18.3308 45.3285L19.9215 46.9193C21.6529 45.189 22.221 42.9244 22.4077 41.598C23.0872 41.7071 23.7724 41.7926 24.4609 41.8579C24.561 43.2068 24.5205 45.8876 22.8802 47.529L24.471 49.1198C26.6276 46.9631 26.8211 43.7918 26.7266 41.9884C27.2565 42.0019 27.7864 42.0109 28.3185 41.9985C28.7134 43.2585 29.25 46.0384 27.2891 48.2265L28.9643 49.7284C31.4179 46.9924 31.0984 43.7265 30.618 41.8635C31.005 41.8286 31.392 41.7859 31.7801 41.7375C31.914 43.9268 32.3145 48.2738 33.4339 50.1064L35.3543 48.933C34.6016 47.7023 34.1629 43.9976 34.0121 41.3899C34.2956 41.3359 34.578 41.2718 34.8615 41.211C34.9594 43.2 35.5792 46.6976 38.4952 49.1816L39.9544 47.4694C37.449 45.3353 37.116 42.0896 37.0991 40.6496C37.4816 40.5405 37.8652 40.4393 38.2444 40.3178C38.2455 40.3178 38.2466 40.3166 38.2477 40.3166C38.5886 42.3765 39.735 46.0013 43.6061 47.6078L44.469 45.5288C41.3291 44.226 40.5855 41.0288 40.4077 39.5651C40.8746 39.3941 41.3606 39.2074 41.841 39.0251C42.3079 41.031 43.8064 43.7501 47.421 44.9449L48.1275 42.8085C44.9381 41.7544 44.1664 39.3278 43.9785 38.214C48.8363 36.3701 54.1777 34.5668 58.7531 36.0045C64.2319 37.7258 67.5889 42.993 67.1096 49.113C66.5831 55.8236 62.8436 60.6746 55.9957 63.531C46.8247 67.3549 33.9806 66.8824 25.0166 65.1645C11.0182 62.4803 4.5 57.0195 4.5 47.9745C4.5 44.7019 6.39113 41.6351 9.31838 40.1614Z" fill="#0D0D0D"/>
<path d="M67.8297 5.95472L57.6406 16.1438L65.0858 3.96122L63.1655 2.78784L53.7998 18.1126C52.0392 17.8482 50.6138 17.9933 50.5002 18.0068C49.9062 18.0732 49.4686 18.5907 49.5012 19.187C49.535 19.7832 50.0277 20.2501 50.6251 20.2501C51.2438 20.2501 51.7456 20.5246 52.1303 20.8452L50.7893 23.039C50.4923 23.525 50.606 24.1572 51.0537 24.5093C51.2596 24.6702 51.5048 24.7501 51.7501 24.7501C52.0392 24.7501 52.3283 24.6387 52.5466 24.4205L53.3375 23.6296C53.414 24.623 53.3678 26.0191 52.9088 27.8528L55.0913 28.3985C55.9407 24.9987 55.6032 22.7791 55.2916 21.6743L55.8991 21.0668C56.4121 21.3166 56.8902 21.6248 57.2862 22.0265C58.3628 23.1166 58.7735 24.7433 58.5091 26.8606L60.7411 27.1396C61.0955 24.3046 60.4722 22.0523 58.8882 20.4458C58.4821 20.0341 58.0321 19.6943 57.5607 19.4052L69.4205 7.54547L67.8297 5.95472Z" fill="#0D0D0D"/>
<path d="M47.3749 13.202L43.1742 10.6809C38.4166 7.82785 32.6599 7.1596 27.3747 8.85047L9.13168 14.6881C7.4183 15.236 6.41705 17.0337 6.85355 18.7808C7.08418 19.7022 7.69393 20.4942 8.52755 20.9521C9.03718 21.2322 9.60643 21.374 10.1779 21.374C10.5424 21.374 10.9069 21.3166 11.2591 21.1996L31.3279 14.5092C34.1348 13.5721 37.1532 13.3853 40.0557 13.9658L46.5762 15.2697C47.1128 15.3788 47.6494 15.0818 47.8463 14.5722C48.0432 14.0615 47.8441 13.4832 47.3749 13.202ZM30.6147 12.374L10.5469 19.0643C10.2342 19.1701 9.90005 19.1386 9.6098 18.98C9.31955 18.8214 9.11593 18.557 9.03605 18.2352C8.88643 17.6356 9.22955 17.0191 9.8168 16.8312L28.0598 10.9936C29.7552 10.4514 31.5057 10.1836 33.2506 10.1836C35.6862 10.1836 38.1072 10.7056 40.3448 11.7305C37.1048 11.1095 33.7444 11.3311 30.6147 12.374Z" fill="#0D0D0D"/>
</svg>
